solid ascii
  facet normal 9.952439e-001 -9.741472e-002 0.000000e+000
    outer loop
      vertex   -9.917385e-001 9.707162e-002 2.540000e+000
      vertex   -9.724298e-001 2.943407e-001 0.000000e+000
      vertex   -9.724298e-001 2.943407e-001 5.080000e+000
    endloop
  endfacet
  facet normal 9.741472e-002 9.952439e-001 -0.000000e+000
    outer loop
      vertex   -9.707162e-002 -9.917385e-001 2.540000e+000
      vertex   -2.943407e-001 -9.724298e-001 0.000000e+000
      vertex   -2.943407e-001 -9.724298e-001 5.080000e+000
    endloop
  endfacet
  facet normal 0.000000e+000 0.000000e+000 -1.000000e+000
    outer loop
      vertex   3.296004e+001 1.616446e+000 0.000000e+000
      vertex   3.345559e+001 8.748143e-001 0.000000e+000
      vertex   3.221841e+001 2.111989e+000 0.000000e+000
    endloop
  endfacet
  facet normal 0.000000e+000 0.000000e+000 -1.000000e+000
    outer loop
      vertex   0.000000e+000 2.286000e+000 0.000000e+000
      vertex   8.957419e-001 4.794814e-001 0.000000e+000
      vertex   6.440681e-001 7.857686e-001 0.000000e+000
    endloop
  endfacet
  facet normal 0.000000e+000 0.000000e+000 -1.000000e+000
    outer loop
      vertex   3.345559e+001 8.748143e-001 0.000000e+000
      vertex   3.362960e+001 -1.399771e-016 0.000000e+000
      vertex   3.221841e+001 2.111989e+000 0.000000e+000
    endloop
  endfacet
  facet normal 0.000000e+000 0.000000e+000 -1.000000e+000
    outer loop
      vertex   3.221841e+001 2.111989e+000 0.000000e+000
      vertex   3.362960e+001 -1.399771e-016 0.000000e+000
      vertex   3.134360e+001 2.286000e+000 0.000000e+000
    endloop
  endfacet
  facet normal 0.000000e+000 0.000000e+000 -1.000000e+000
    outer loop
      vertex   3.362960e+001 -1.399771e-016 0.000000e+000
      vertex   3.345559e+001 -8.748143e-001 0.000000e+000
      vertex   3.134360e+001 2.286000e+000 0.000000e+000
    endloop
  endfacet
  facet normal 0.000000e+000 0.000000e+000 -1.000000e+000
    outer loop
      vertex   3.134360e+001 2.286000e+000 0.000000e+000
      vertex   3.153010e+001 9.987355e-001 0.000000e+000
      vertex   0.000000e+000 2.286000e+000 0.000000e+000
    endloop
  endfacet
  facet normal 0.000000e+000 0.000000e+000 -1.000000e+000
    outer loop
      vertex   3.134360e+001 2.286000e+000 0.000000e+000
      vertex   3.189811e+001 8.513397e-001 0.000000e+000
      vertex   3.153010e+001 9.987355e-001 0.000000e+000
    endloop
  endfacet
  facet normal 0.000000e+000 0.000000e+000 -1.000000e+000
    outer loop
      vertex   3.134360e+001 2.286000e+000 0.000000e+000
      vertex   3.218169e+001 5.743352e-001 0.000000e+000
      vertex   3.189811e+001 8.513397e-001 0.000000e+000
    endloop
  endfacet
  facet normal 0.000000e+000 0.000000e+000 -1.000000e+000
    outer loop
      vertex   3.134360e+001 2.286000e+000 0.000000e+000
      vertex   3.345559e+001 -8.748143e-001 0.000000e+000
      vertex   3.218169e+001 5.743352e-001 0.000000e+000
    endloop
  endfacet
  facet normal 0.000000e+000 0.000000e+000 -1.000000e+000
    outer loop
      vertex   3.218169e+001 5.743352e-001 0.000000e+000
      vertex   3.345559e+001 -8.748143e-001 0.000000e+000
      vertex   3.233768e+001 2.098933e-001 0.000000e+000
    endloop
  endfacet
  facet normal 0.000000e+000 0.000000e+000 -1.000000e+000
    outer loop
      vertex   3.345559e+001 -8.748143e-001 0.000000e+000
      vertex   3.296004e+001 -1.616446e+000 0.000000e+000
      vertex   3.233768e+001 2.098933e-001 0.000000e+000
    endloop
  endfacet
  facet normal 0.000000e+000 0.000000e+000 -1.000000e+000
    outer loop
      vertex   3.233768e+001 2.098933e-001 0.000000e+000
      vertex   3.296004e+001 -1.616446e+000 0.000000e+000
      vertex   3.234233e+001 -1.865029e-001 0.000000e+000
    endloop
  endfacet
  facet normal 0.000000e+000 0.000000e+000 -1.000000e+000
    outer loop
      vertex   3.153010e+001 9.987355e-001 0.000000e+000
      vertex   3.113371e+001 9.940829e-001 0.000000e+000
      vertex   0.000000e+000 2.286000e+000 0.000000e+000
    endloop
  endfacet
  facet normal 0.000000e+000 0.000000e+000 -1.000000e+000
    outer loop
      vertex   3.234233e+001 -1.865029e-001 0.000000e+000
      vertex   3.296004e+001 -1.616446e+000 0.000000e+000
      vertex   3.219494e+001 -5.545058e-001 0.000000e+000
    endloop
  endfacet
  facet normal 0.000000e+000 0.000000e+000 -1.000000e+000
    outer loop
      vertex   6.440681e-001 7.857686e-001 0.000000e+000
      vertex   2.943407e-001 9.724298e-001 0.000000e+000
      vertex   -8.748143e-001 2.111989e+000 0.000000e+000
    endloop
  endfacet
  facet normal 0.000000e+000 0.000000e+000 -1.000000e+000
    outer loop
      vertex   2.943407e-001 9.724298e-001 0.000000e+000
      vertex   -1.001974e-001 1.011047e+000 0.000000e+000
      vertex   -8.748143e-001 2.111989e+000 0.000000e+000
    endloop
  endfacet
  facet normal 0.000000e+000 0.000000e+000 -1.000000e+000
    outer loop
      vertex   3.113371e+001 9.940829e-001 0.000000e+000
      vertex   3.076926e+001 8.380902e-001 0.000000e+000
      vertex   0.000000e+000 2.286000e+000 0.000000e+000
    endloop
  endfacet
  facet normal 0.000000e+000 0.000000e+000 -1.000000e+000
    outer loop
      vertex   -8.748143e-001 2.111989e+000 0.000000e+000
      vertex   -1.001974e-001 1.011047e+000 0.000000e+000
      vertex   -1.616446e+000 1.616446e+000 0.000000e+000
    endloop
  endfacet
  facet normal 0.000000e+000 0.000000e+000 -1.000000e+000
    outer loop
      vertex   3.219494e+001 -5.545058e-001 0.000000e+000
      vertex   3.296004e+001 -1.616446e+000 0.000000e+000
      vertex   3.191793e+001 -8.380902e-001 0.000000e+000
    endloop
  endfacet
  facet normal 0.000000e+000 0.000000e+000 -1.000000e+000
    outer loop
      vertex   3.296004e+001 -1.616446e+000 0.000000e+000
      vertex   3.221841e+001 -2.111989e+000 0.000000e+000
      vertex   3.191793e+001 -8.380902e-001 0.000000e+000
    endloop
  endfacet
  facet normal 0.000000e+000 0.000000e+000 -1.000000e+000
    outer loop
      vertex   3.076926e+001 8.380902e-001 0.000000e+000
      vertex   3.049226e+001 5.545058e-001 0.000000e+000
      vertex   0.000000e+000 2.286000e+000 0.000000e+000
    endloop
  endfacet
  facet normal 0.000000e+000 0.000000e+000 -1.000000e+000
    outer loop
      vertex   3.191793e+001 -8.380902e-001 0.000000e+000
      vertex   3.221841e+001 -2.111989e+000 0.000000e+000
      vertex   3.155349e+001 -9.940829e-001 0.000000e+000
    endloop
  endfacet
  facet normal 0.000000e+000 0.000000e+000 -1.000000e+000
    outer loop
      vertex   3.049226e+001 5.545058e-001 0.000000e+000
      vertex   3.034486e+001 1.865029e-001 0.000000e+000
      vertex   0.000000e+000 2.286000e+000 0.000000e+000
    endloop
  endfacet
  facet normal 0.000000e+000 0.000000e+000 -1.000000e+000
    outer loop
      vertex   3.155349e+001 -9.940829e-001 0.000000e+000
      vertex   3.221841e+001 -2.111989e+000 0.000000e+000
      vertex   3.115710e+001 -9.987355e-001 0.000000e+000
    endloop
  endfacet
  facet normal 0.000000e+000 0.000000e+000 -1.000000e+000
    outer loop
      vertex   3.034486e+001 1.865029e-001 0.000000e+000
      vertex   3.034952e+001 -2.098933e-001 0.000000e+000
      vertex   0.000000e+000 2.286000e+000 0.000000e+000
    endloop
  endfacet
  facet normal 0.000000e+000 0.000000e+000 -1.000000e+000
    outer loop
      vertex   3.221841e+001 -2.111989e+000 0.000000e+000
      vertex   3.134360e+001 -2.286000e+000 0.000000e+000
      vertex   3.115710e+001 -9.987355e-001 0.000000e+000
    endloop
  endfacet
  facet normal 6.987588e-001 7.153573e-001 7.399405e-009
    outer loop
      vertex   3.064730e+001 -7.128375e-001 2.540000e+000
      vertex   3.078909e+001 -8.513397e-001 0.000000e+000
      vertex   3.050551e+001 -5.743352e-001 0.000000e+000
    endloop
  endfacet
  facet normal 6.987589e-001 7.153573e-001 -0.000000e+000
    outer loop
      vertex   3.064730e+001 -7.128375e-001 2.540000e+000
      vertex   3.050551e+001 -5.743352e-001 0.000000e+000
      vertex   3.050551e+001 -5.743352e-001 5.080000e+000
    endloop
  endfacet
  facet normal -9.952439e-001 9.741472e-002 0.000000e+000
    outer loop
      vertex   9.917385e-001 -9.707162e-002 2.540000e+000
      vertex   1.011047e+000 1.001974e-001 0.000000e+000
      vertex   9.724298e-001 -2.943407e-001 0.000000e+000
    endloop
  endfacet
  facet normal 6.987588e-001 7.153575e-001 0.000000e+000
    outer loop
      vertex   3.064730e+001 -7.128375e-001 2.540000e+000
      vertex   3.078909e+001 -8.513397e-001 5.080000e+000
      vertex   3.078909e+001 -8.513397e-001 0.000000e+000
    endloop
  endfacet
  facet normal 3.718148e-001 9.283069e-001 1.387392e-007
    outer loop
      vertex   3.097309e+001 -9.250376e-001 2.540000e+000
      vertex   3.115710e+001 -9.987355e-001 0.000000e+000
      vertex   3.078909e+001 -8.513397e-001 0.000000e+000
    endloop
  endfacet
  facet normal 3.718165e-001 9.283062e-001 -0.000000e+000
    outer loop
      vertex   3.097309e+001 -9.250376e-001 2.540000e+000
      vertex   3.078909e+001 -8.513397e-001 0.000000e+000
      vertex   3.078909e+001 -8.513397e-001 5.080000e+000
    endloop
  endfacet
  facet normal -9.952439e-001 9.741472e-002 0.000000e+000
    outer loop
      vertex   9.917385e-001 -9.707162e-002 2.540000e+000
      vertex   9.724298e-001 -2.943407e-001 0.000000e+000
      vertex   9.724298e-001 -2.943407e-001 5.080000e+000
    endloop
  endfacet
  facet normal 3.718132e-001 9.283075e-001 0.000000e+000
    outer loop
      vertex   3.097309e+001 -9.250376e-001 2.540000e+000
      vertex   3.115710e+001 -9.987355e-001 5.080000e+000
      vertex   3.115710e+001 -9.987355e-001 0.000000e+000
    endloop
  endfacet
  facet normal -1.173662e-002 9.999311e-001 -1.173499e-008
    outer loop
      vertex   3.135530e+001 -9.964092e-001 2.540000e+000
      vertex   3.155349e+001 -9.940829e-001 0.000000e+000
      vertex   3.115710e+001 -9.987355e-001 0.000000e+000
    endloop
  endfacet
  facet normal -1.173677e-002 9.999311e-001 0.000000e+000
    outer loop
      vertex   3.135530e+001 -9.964092e-001 2.540000e+000
      vertex   3.115710e+001 -9.987355e-001 0.000000e+000
      vertex   3.115710e+001 -9.987355e-001 5.080000e+000
    endloop
  endfacet
  facet normal -9.952439e-001 9.741472e-002 0.000000e+000
    outer loop
      vertex   9.917385e-001 -9.707162e-002 2.540000e+000
      vertex   1.011047e+000 1.001974e-001 5.080000e+000
      vertex   1.011047e+000 1.001974e-001 0.000000e+000
    endloop
  endfacet
  facet normal -1.173647e-002 9.999311e-001 0.000000e+000
    outer loop
      vertex   3.135530e+001 -9.964092e-001 2.540000e+000
      vertex   3.155349e+001 -9.940829e-001 5.080000e+000
      vertex   3.155349e+001 -9.940829e-001 0.000000e+000
    endloop
  endfacet
  facet normal -3.935010e-001 9.193242e-001 1.109914e-008
    outer loop
      vertex   3.173571e+001 -9.160866e-001 2.540000e+000
      vertex   3.191793e+001 -8.380902e-001 0.000000e+000
      vertex   3.155349e+001 -9.940829e-001 0.000000e+000
    endloop
  endfacet
  facet normal -3.935008e-001 9.193242e-001 0.000000e+000
    outer loop
      vertex   3.173571e+001 -9.160866e-001 2.540000e+000
      vertex   3.155349e+001 -9.940829e-001 0.000000e+000
      vertex   3.155349e+001 -9.940829e-001 5.080000e+000
    endloop
  endfacet
  facet normal -9.567644e-001 -2.908639e-001 0.000000e+000
    outer loop
      vertex   9.533946e-001 2.898394e-001 2.540000e+000
      vertex   1.011047e+000 1.001974e-001 0.000000e+000
      vertex   1.011047e+000 1.001974e-001 5.080000e+000
    endloop
  endfacet
  facet normal -3.935011e-001 9.193242e-001 0.000000e+000
    outer loop
      vertex   3.173571e+001 -9.160866e-001 2.540000e+000
      vertex   3.191793e+001 -8.380902e-001 5.080000e+000
      vertex   3.191793e+001 -8.380902e-001 0.000000e+000
    endloop
  endfacet
  facet normal -7.153576e-001 6.987587e-001 -5.290580e-007
    outer loop
      vertex   3.205643e+001 -6.962980e-001 2.540000e+000
      vertex   3.219494e+001 -5.545058e-001 0.000000e+000
      vertex   3.191793e+001 -8.380902e-001 0.000000e+000
    endloop
  endfacet
  facet normal -7.153623e-001 6.987538e-001 0.000000e+000
    outer loop
      vertex   3.205643e+001 -6.962980e-001 2.540000e+000
      vertex   3.191793e+001 -8.380902e-001 0.000000e+000
      vertex   3.191793e+001 -8.380902e-001 5.080000e+000
    endloop
  endfacet
  facet normal -9.567645e-001 -2.908639e-001 -0.000000e+000
    outer loop
      vertex   9.533946e-001 2.898394e-001 2.540000e+000
      vertex   8.957419e-001 4.794814e-001 5.080000e+000
      vertex   8.957419e-001 4.794814e-001 0.000000e+000
    endloop
  endfacet
  facet normal -7.153527e-001 6.987634e-001 0.000000e+000
    outer loop
      vertex   3.205643e+001 -6.962980e-001 2.540000e+000
      vertex   3.219494e+001 -5.545058e-001 5.080000e+000
      vertex   3.219494e+001 -5.545058e-001 0.000000e+000
    endloop
  endfacet
  facet normal -9.283071e-001 3.718146e-001 6.955443e-007
    outer loop
      vertex   3.226864e+001 -3.705043e-001 2.540000e+000
      vertex   3.234233e+001 -1.865029e-001 0.000000e+000
      vertex   3.219494e+001 -5.545058e-001 0.000000e+000
    endloop
  endfacet
  facet normal -9.283037e-001 3.718229e-001 0.000000e+000
    outer loop
      vertex   3.226864e+001 -3.705043e-001 2.540000e+000
      vertex   3.219494e+001 -5.545058e-001 0.000000e+000
      vertex   3.219494e+001 -5.545058e-001 5.080000e+000
    endloop
  endfacet
  facet normal -7.726262e-001 -6.348612e-001 0.000000e+000
    outer loop
      vertex   7.699050e-001 6.326250e-001 2.540000e+000
      vertex   8.957419e-001 4.794814e-001 0.000000e+000
      vertex   8.957419e-001 4.794814e-001 5.080000e+000
    endloop
  endfacet
  facet normal -9.283103e-001 3.718063e-001 0.000000e+000
    outer loop
      vertex   3.226864e+001 -3.705043e-001 2.540000e+000
      vertex   3.234233e+001 -1.865029e-001 5.080000e+000
      vertex   3.234233e+001 -1.865029e-001 0.000000e+000
    endloop
  endfacet
  facet normal -9.999312e-001 -1.173017e-002 7.508665e-007
    outer loop
      vertex   3.234001e+001 1.169517e-002 2.540000e+000
      vertex   3.233768e+001 2.098933e-001 0.000000e+000
      vertex   3.234233e+001 -1.865029e-001 0.000000e+000
    endloop
  endfacet
  facet normal -9.999313e-001 -1.172055e-002 0.000000e+000
    outer loop
      vertex   3.234001e+001 1.169517e-002 2.540000e+000
      vertex   3.234233e+001 -1.865029e-001 0.000000e+000
      vertex   3.234233e+001 -1.865029e-001 5.080000e+000
    endloop
  endfacet
  facet normal -7.726265e-001 -6.348610e-001 -0.000000e+000
    outer loop
      vertex   7.699050e-001 6.326250e-001 2.540000e+000
      vertex   6.440681e-001 7.857686e-001 5.080000e+000
      vertex   6.440681e-001 7.857686e-001 0.000000e+000
    endloop
  endfacet
  facet normal -9.999311e-001 -1.173979e-002 -0.000000e+000
    outer loop
      vertex   3.234001e+001 1.169517e-002 2.540000e+000
      vertex   3.233768e+001 2.098933e-001 5.080000e+000
      vertex   3.233768e+001 2.098933e-001 0.000000e+000
    endloop
  endfacet
  facet normal -9.193230e-001 -3.935038e-001 6.918435e-007
    outer loop
      vertex   3.225969e+001 3.921142e-001 2.540000e+000
      vertex   3.218169e+001 5.743352e-001 0.000000e+000
      vertex   3.233768e+001 2.098933e-001 0.000000e+000
    endloop
  endfacet
  facet normal -9.193264e-001 -3.934956e-001 0.000000e+000
    outer loop
      vertex   3.225969e+001 3.921142e-001 2.540000e+000
      vertex   3.233768e+001 2.098933e-001 0.000000e+000
      vertex   3.233768e+001 2.098933e-001 5.080000e+000
    endloop
  endfacet
  facet normal -4.708628e-001 -8.822064e-001 0.000000e+000
    outer loop
      vertex   4.692044e-001 8.790992e-001 2.540000e+000
      vertex   6.440681e-001 7.857686e-001 0.000000e+000
      vertex   6.440681e-001 7.857686e-001 5.080000e+000
    endloop
  endfacet
  facet normal -9.193195e-001 -3.935119e-001 -0.000000e+000
    outer loop
      vertex   3.225969e+001 3.921142e-001 2.540000e+000
      vertex   3.218169e+001 5.743352e-001 5.080000e+000
      vertex   3.218169e+001 5.743352e-001 0.000000e+000
    endloop
  endfacet
  facet normal -6.987588e-001 -7.153573e-001 7.399405e-009
    outer loop
      vertex   3.203990e+001 7.128375e-001 2.540000e+000
      vertex   3.189811e+001 8.513397e-001 0.000000e+000
      vertex   3.218169e+001 5.743352e-001 0.000000e+000
    endloop
  endfacet
  facet normal -6.987589e-001 -7.153573e-001 0.000000e+000
    outer loop
      vertex   3.203990e+001 7.128375e-001 2.540000e+000
      vertex   3.218169e+001 5.743352e-001 0.000000e+000
      vertex   3.218169e+001 5.743352e-001 5.080000e+000
    endloop
  endfacet
  facet normal -4.708628e-001 -8.822064e-001 -0.000000e+000
    outer loop
      vertex   4.692044e-001 8.790992e-001 2.540000e+000
      vertex   2.943407e-001 9.724298e-001 5.080000e+000
      vertex   2.943407e-001 9.724298e-001 0.000000e+000
    endloop
  endfacet
  facet normal -6.987588e-001 -7.153575e-001 -0.000000e+000
    outer loop
      vertex   3.203990e+001 7.128375e-001 2.540000e+000
      vertex   3.189811e+001 8.513397e-001 5.080000e+000
      vertex   3.189811e+001 8.513397e-001 0.000000e+000
    endloop
  endfacet
  facet normal -3.718148e-001 -9.283069e-001 -1.405891e-007
    outer loop
      vertex   3.171410e+001 9.250376e-001 2.540000e+000
      vertex   3.153010e+001 9.987355e-001 0.000000e+000
      vertex   3.189811e+001 8.513397e-001 0.000000e+000
    endloop
  endfacet
  facet normal -3.718132e-001 -9.283075e-001 0.000000e+000
    outer loop
      vertex   3.171410e+001 9.250376e-001 2.540000e+000
      vertex   3.189811e+001 8.513397e-001 0.000000e+000
      vertex   3.189811e+001 8.513397e-001 5.080000e+000
    endloop
  endfacet
  facet normal -9.741472e-002 -9.952439e-001 0.000000e+000
    outer loop
      vertex   9.707162e-002 9.917385e-001 2.540000e+000
      vertex   2.943407e-001 9.724298e-001 0.000000e+000
      vertex   2.943407e-001 9.724298e-001 5.080000e+000
    endloop
  endfacet
  facet normal -3.718165e-001 -9.283062e-001 -0.000000e+000
    outer loop
      vertex   3.171410e+001 9.250376e-001 2.540000e+000
      vertex   3.153010e+001 9.987355e-001 5.080000e+000
      vertex   3.153010e+001 9.987355e-001 0.000000e+000
    endloop
  endfacet
  facet normal 1.173662e-002 -9.999311e-001 -1.173499e-008
    outer loop
      vertex   3.133191e+001 9.964092e-001 2.540000e+000
      vertex   3.113371e+001 9.940829e-001 0.000000e+000
      vertex   3.153010e+001 9.987355e-001 0.000000e+000
    endloop
  endfacet
  facet normal 1.173677e-002 -9.999311e-001 0.000000e+000
    outer loop
      vertex   3.133191e+001 9.964092e-001 2.540000e+000
      vertex   3.153010e+001 9.987355e-001 0.000000e+000
      vertex   3.153010e+001 9.987355e-001 5.080000e+000
    endloop
  endfacet
  facet normal -9.741472e-002 -9.952439e-001 -0.000000e+000
    outer loop
      vertex   9.707162e-002 9.917385e-001 2.540000e+000
      vertex   -1.001974e-001 1.011047e+000 5.080000e+000
      vertex   -1.001974e-001 1.011047e+000 0.000000e+000
    endloop
  endfacet
  facet normal 1.173647e-002 -9.999311e-001 0.000000e+000
    outer loop
      vertex   3.133191e+001 9.964092e-001 2.540000e+000
      vertex   3.113371e+001 9.940829e-001 5.080000e+000
      vertex   3.113371e+001 9.940829e-001 0.000000e+000
    endloop
  endfacet
  facet normal 3.934993e-001 -9.193250e-001 1.590870e-007
    outer loop
      vertex   3.095148e+001 9.160866e-001 2.540000e+000
      vertex   3.076926e+001 8.380902e-001 0.000000e+000
      vertex   3.113371e+001 9.940829e-001 0.000000e+000
    endloop
  endfacet
  facet normal 3.934974e-001 -9.193258e-001 0.000000e+000
    outer loop
      vertex   3.095148e+001 9.160866e-001 2.540000e+000
      vertex   3.113371e+001 9.940829e-001 0.000000e+000
      vertex   3.113371e+001 9.940829e-001 5.080000e+000
    endloop
  endfacet
  facet normal 2.908639e-001 -9.567644e-001 0.000000e+000
    outer loop
      vertex   -2.898394e-001 9.533946e-001 2.540000e+000
      vertex   -1.001974e-001 1.011047e+000 0.000000e+000
      vertex   -1.001974e-001 1.011047e+000 5.080000e+000
    endloop
  endfacet
  facet normal 3.935011e-001 -9.193242e-001 0.000000e+000
    outer loop
      vertex   3.095148e+001 9.160866e-001 2.540000e+000
      vertex   3.076926e+001 8.380902e-001 5.080000e+000
      vertex   3.076926e+001 8.380902e-001 0.000000e+000
    endloop
  endfacet
  facet normal 7.153576e-001 -6.987587e-001 7.399412e-009
    outer loop
      vertex   3.063076e+001 6.962980e-001 2.540000e+000
      vertex   3.049226e+001 5.545058e-001 0.000000e+000
      vertex   3.076926e+001 8.380902e-001 0.000000e+000
    endloop
  endfacet
  facet normal 7.153575e-001 -6.987588e-001 0.000000e+000
    outer loop
      vertex   3.063076e+001 6.962980e-001 2.540000e+000
      vertex   3.076926e+001 8.380902e-001 0.000000e+000
      vertex   3.076926e+001 8.380902e-001 5.080000e+000
    endloop
  endfacet
  facet normal 2.908639e-001 -9.567645e-001 0.000000e+000
    outer loop
      vertex   -2.898394e-001 9.533946e-001 2.540000e+000
      vertex   -4.794814e-001 8.957419e-001 5.080000e+000
      vertex   -4.794814e-001 8.957419e-001 0.000000e+000
    endloop
  endfacet
  facet normal 7.153576e-001 -6.987586e-001 0.000000e+000
    outer loop
      vertex   3.063076e+001 6.962980e-001 2.540000e+000
      vertex   3.049226e+001 5.545058e-001 5.080000e+000
      vertex   3.049226e+001 5.545058e-001 0.000000e+000
    endloop
  endfacet
  facet normal 9.283071e-001 -3.718146e-001 -1.849852e-009
    outer loop
      vertex   3.041856e+001 3.705043e-001 2.540000e+000
      vertex   3.034486e+001 1.865029e-001 0.000000e+000
      vertex   3.049226e+001 5.545058e-001 0.000000e+000
    endloop
  endfacet
  facet normal 9.283071e-001 -3.718146e-001 0.000000e+000
    outer loop
      vertex   3.041856e+001 3.705043e-001 2.540000e+000
      vertex   3.049226e+001 5.545058e-001 0.000000e+000
      vertex   3.049226e+001 5.545058e-001 5.080000e+000
    endloop
  endfacet
  facet normal 6.348612e-001 -7.726262e-001 0.000000e+000
    outer loop
      vertex   -6.326250e-001 7.699050e-001 2.540000e+000
      vertex   -4.794814e-001 8.957419e-001 0.000000e+000
      vertex   -4.794814e-001 8.957419e-001 5.080000e+000
    endloop
  endfacet
  facet normal 9.283071e-001 -3.718146e-001 0.000000e+000
    outer loop
      vertex   3.041856e+001 3.705043e-001 2.540000e+000
      vertex   3.034486e+001 1.865029e-001 5.080000e+000
      vertex   3.034486e+001 1.865029e-001 0.000000e+000
    endloop
  endfacet
  facet normal 9.999311e-001 1.173979e-002 0.000000e+000
    outer loop
      vertex   3.034719e+001 -1.169517e-002 2.540000e+000
      vertex   3.034952e+001 -2.098933e-001 0.000000e+000
      vertex   3.034486e+001 1.865029e-001 0.000000e+000
    endloop
  endfacet
  facet normal 9.999311e-001 1.173979e-002 -0.000000e+000
    outer loop
      vertex   3.034719e+001 -1.169517e-002 2.540000e+000
      vertex   3.034486e+001 1.865029e-001 0.000000e+000
      vertex   3.034486e+001 1.865029e-001 5.080000e+000
    endloop
  endfacet
  facet normal 6.348610e-001 -7.726265e-001 0.000000e+000
    outer loop
      vertex   -6.326250e-001 7.699050e-001 2.540000e+000
      vertex   -7.857686e-001 6.440681e-001 5.080000e+000
      vertex   -7.857686e-001 6.440681e-001 0.000000e+000
    endloop
  endfacet
  facet normal 9.999311e-001 1.173979e-002 0.000000e+000
    outer loop
      vertex   3.034719e+001 -1.169517e-002 2.540000e+000
      vertex   3.034952e+001 -2.098933e-001 5.080000e+000
      vertex   3.034952e+001 -2.098933e-001 0.000000e+000
    endloop
  endfacet
  facet normal 9.193248e-001 3.934997e-001 3.440726e-007
    outer loop
      vertex   3.042751e+001 -3.921142e-001 2.540000e+000
      vertex   3.050551e+001 -5.743352e-001 0.000000e+000
      vertex   3.034952e+001 -2.098933e-001 0.000000e+000
    endloop
  endfacet
  facet normal 9.193264e-001 3.934956e-001 -0.000000e+000
    outer loop
      vertex   3.042751e+001 -3.921142e-001 2.540000e+000
      vertex   3.034952e+001 -2.098933e-001 0.000000e+000
      vertex   3.034952e+001 -2.098933e-001 5.080000e+000
    endloop
  endfacet
  facet normal 8.822064e-001 -4.708628e-001 0.000000e+000
    outer loop
      vertex   -8.790992e-001 4.692044e-001 2.540000e+000
      vertex   -7.857686e-001 6.440681e-001 0.000000e+000
      vertex   -7.857686e-001 6.440681e-001 5.080000e+000
    endloop
  endfacet
  facet normal 9.193230e-001 3.935038e-001 0.000000e+000
    outer loop
      vertex   3.042751e+001 -3.921142e-001 2.540000e+000
      vertex   3.050551e+001 -5.743352e-001 5.080000e+000
      vertex   3.050551e+001 -5.743352e-001 0.000000e+000
    endloop
  endfacet
  facet normal -1.950904e-001 9.807853e-001 4.604076e-008
    outer loop
      vertex   -4.374072e-001 2.198994e+000 2.540000e+000
      vertex   0.000000e+000 2.286000e+000 0.000000e+000
      vertex   -8.748143e-001 2.111989e+000 0.000000e+000
    endloop
  endfacet
  facet normal -1.950902e-001 9.807853e-001 0.000000e+000
    outer loop
      vertex   -4.374072e-001 2.198994e+000 2.540000e+000
      vertex   -8.748143e-001 2.111989e+000 0.000000e+000
      vertex   -8.748143e-001 2.111989e+000 5.080000e+000
    endloop
  endfacet
  facet normal 8.822064e-001 -4.708628e-001 0.000000e+000
    outer loop
      vertex   -8.790992e-001 4.692044e-001 2.540000e+000
      vertex   -9.724298e-001 2.943407e-001 5.080000e+000
      vertex   -9.724298e-001 2.943407e-001 0.000000e+000
    endloop
  endfacet
  facet normal -1.950907e-001 9.807853e-001 0.000000e+000
    outer loop
      vertex   -4.374072e-001 2.198994e+000 2.540000e+000
      vertex   0.000000e+000 2.286000e+000 5.080000e+000
      vertex   0.000000e+000 2.286000e+000 0.000000e+000
    endloop
  endfacet
  facet normal -5.555701e-001 8.314697e-001 1.315450e-008
    outer loop
      vertex   -1.245630e+000 1.864217e+000 2.540000e+000
      vertex   -8.748143e-001 2.111989e+000 0.000000e+000
      vertex   -1.616446e+000 1.616446e+000 0.000000e+000
    endloop
  endfacet
  facet normal -5.555701e-001 8.314697e-001 0.000000e+000
    outer loop
      vertex   -1.245630e+000 1.864217e+000 2.540000e+000
      vertex   -1.616446e+000 1.616446e+000 0.000000e+000
      vertex   -1.616446e+000 1.616446e+000 5.080000e+000
    endloop
  endfacet
  facet normal 0.000000e+000 0.000000e+000 -1.000000e+000
    outer loop
      vertex   -1.001974e-001 1.011047e+000 0.000000e+000
      vertex   -4.794814e-001 8.957419e-001 0.000000e+000
      vertex   -1.616446e+000 1.616446e+000 0.000000e+000
    endloop
  endfacet
  facet normal -5.555702e-001 8.314697e-001 0.000000e+000
    outer loop
      vertex   -1.245630e+000 1.864217e+000 2.540000e+000
      vertex   -8.748143e-001 2.111989e+000 5.080000e+000
      vertex   -8.748143e-001 2.111989e+000 0.000000e+000
    endloop
  endfacet
  facet normal -8.314697e-001 5.555701e-001 1.315450e-008
    outer loop
      vertex   -1.864217e+000 1.245630e+000 2.540000e+000
      vertex   -1.616446e+000 1.616446e+000 0.000000e+000
      vertex   -2.111989e+000 8.748143e-001 0.000000e+000
    endloop
  endfacet
  facet normal -8.314697e-001 5.555702e-001 0.000000e+000
    outer loop
      vertex   -1.864217e+000 1.245630e+000 2.540000e+000
      vertex   -2.111989e+000 8.748143e-001 0.000000e+000
      vertex   -2.111989e+000 8.748143e-001 5.080000e+000
    endloop
  endfacet
  facet normal 9.952439e-001 -9.741472e-002 0.000000e+000
    outer loop
      vertex   -9.917385e-001 9.707162e-002 2.540000e+000
      vertex   -1.011047e+000 -1.001974e-001 5.080000e+000
      vertex   -1.011047e+000 -1.001974e-001 0.000000e+000
    endloop
  endfacet
  facet normal -8.314697e-001 5.555701e-001 0.000000e+000
    outer loop
      vertex   -1.864217e+000 1.245630e+000 2.540000e+000
      vertex   -1.616446e+000 1.616446e+000 5.080000e+000
      vertex   -1.616446e+000 1.616446e+000 0.000000e+000
    endloop
  endfacet
  facet normal -9.807853e-001 1.950904e-001 4.604076e-008
    outer loop
      vertex   -2.198994e+000 4.374072e-001 2.540000e+000
      vertex   -2.111989e+000 8.748143e-001 0.000000e+000
      vertex   -2.286000e+000 1.399771e-016 0.000000e+000
    endloop
  endfacet
  facet normal -9.807853e-001 1.950907e-001 0.000000e+000
    outer loop
      vertex   -2.198994e+000 4.374072e-001 2.540000e+000
      vertex   -2.286000e+000 1.399771e-016 0.000000e+000
      vertex   -2.286000e+000 1.399771e-016 5.080000e+000
    endloop
  endfacet
  facet normal 9.567644e-001 2.908639e-001 -0.000000e+000
    outer loop
      vertex   -9.533946e-001 -2.898394e-001 2.540000e+000
      vertex   -1.011047e+000 -1.001974e-001 0.000000e+000
      vertex   -1.011047e+000 -1.001974e-001 5.080000e+000
    endloop
  endfacet
  facet normal -9.807853e-001 1.950902e-001 0.000000e+000
    outer loop
      vertex   -2.198994e+000 4.374072e-001 2.540000e+000
      vertex   -2.111989e+000 8.748143e-001 5.080000e+000
      vertex   -2.111989e+000 8.748143e-001 0.000000e+000
    endloop
  endfacet
  facet normal -9.807853e-001 -1.950904e-001 4.604076e-008
    outer loop
      vertex   -2.198994e+000 -4.374072e-001 2.540000e+000
      vertex   -2.286000e+000 1.399771e-016 0.000000e+000
      vertex   -2.111989e+000 -8.748143e-001 0.000000e+000
    endloop
  endfacet
  facet normal -9.807853e-001 -1.950902e-001 0.000000e+000
    outer loop
      vertex   -2.198994e+000 -4.374072e-001 2.540000e+000
      vertex   -2.111989e+000 -8.748143e-001 0.000000e+000
      vertex   -2.111989e+000 -8.748143e-001 5.080000e+000
    endloop
  endfacet
  facet normal 9.567645e-001 2.908639e-001 0.000000e+000
    outer loop
      vertex   -9.533946e-001 -2.898394e-001 2.540000e+000
      vertex   -8.957419e-001 -4.794814e-001 5.080000e+000
      vertex   -8.957419e-001 -4.794814e-001 0.000000e+000
    endloop
  endfacet
  facet normal -9.807853e-001 -1.950907e-001 -0.000000e+000
    outer loop
      vertex   -2.198994e+000 -4.374072e-001 2.540000e+000
      vertex   -2.286000e+000 1.399771e-016 5.080000e+000
      vertex   -2.286000e+000 1.399771e-016 0.000000e+000
    endloop
  endfacet
  facet normal -8.314697e-001 -5.555701e-001 1.315450e-008
    outer loop
      vertex   -1.864217e+000 -1.245630e+000 2.540000e+000
      vertex   -2.111989e+000 -8.748143e-001 0.000000e+000
      vertex   -1.616446e+000 -1.616446e+000 0.000000e+000
    endloop
  endfacet
  facet normal -8.314697e-001 -5.555701e-001 0.000000e+000
    outer loop
      vertex   -1.864217e+000 -1.245630e+000 2.540000e+000
      vertex   -1.616446e+000 -1.616446e+000 0.000000e+000
      vertex   -1.616446e+000 -1.616446e+000 5.080000e+000
    endloop
  endfacet
  facet normal 7.726262e-001 6.348612e-001 -0.000000e+000
    outer loop
      vertex   -7.699050e-001 -6.326250e-001 2.540000e+000
      vertex   -8.957419e-001 -4.794814e-001 0.000000e+000
      vertex   -8.957419e-001 -4.794814e-001 5.080000e+000
    endloop
  endfacet
  facet normal -8.314697e-001 -5.555702e-001 -0.000000e+000
    outer loop
      vertex   -1.864217e+000 -1.245630e+000 2.540000e+000
      vertex   -2.111989e+000 -8.748143e-001 5.080000e+000
      vertex   -2.111989e+000 -8.748143e-001 0.000000e+000
    endloop
  endfacet
  facet normal -5.555701e-001 -8.314697e-001 1.315450e-008
    outer loop
      vertex   -1.245630e+000 -1.864217e+000 2.540000e+000
      vertex   -1.616446e+000 -1.616446e+000 0.000000e+000
      vertex   -8.748143e-001 -2.111989e+000 0.000000e+000
    endloop
  endfacet
  facet normal -5.555702e-001 -8.314697e-001 0.000000e+000
    outer loop
      vertex   -1.245630e+000 -1.864217e+000 2.540000e+000
      vertex   -8.748143e-001 -2.111989e+000 0.000000e+000
      vertex   -8.748143e-001 -2.111989e+000 5.080000e+000
    endloop
  endfacet
  facet normal 7.726265e-001 6.348610e-001 0.000000e+000
    outer loop
      vertex   -7.699050e-001 -6.326250e-001 2.540000e+000
      vertex   -6.440681e-001 -7.857686e-001 5.080000e+000
      vertex   -6.440681e-001 -7.857686e-001 0.000000e+000
    endloop
  endfacet
  facet normal -5.555701e-001 -8.314697e-001 -0.000000e+000
    outer loop
      vertex   -1.245630e+000 -1.864217e+000 2.540000e+000
      vertex   -1.616446e+000 -1.616446e+000 5.080000e+000
      vertex   -1.616446e+000 -1.616446e+000 0.000000e+000
    endloop
  endfacet
  facet normal -1.950904e-001 -9.807853e-001 4.604076e-008
    outer loop
      vertex   -4.374072e-001 -2.198994e+000 2.540000e+000
      vertex   -8.748143e-001 -2.111989e+000 0.000000e+000
      vertex   0.000000e+000 -2.286000e+000 0.000000e+000
    endloop
  endfacet
  facet normal -1.950907e-001 -9.807853e-001 0.000000e+000
    outer loop
      vertex   -4.374072e-001 -2.198994e+000 2.540000e+000
      vertex   0.000000e+000 -2.286000e+000 0.000000e+000
      vertex   0.000000e+000 -2.286000e+000 5.080000e+000
    endloop
  endfacet
  facet normal 4.708628e-001 8.822064e-001 -0.000000e+000
    outer loop
      vertex   -4.692044e-001 -8.790992e-001 2.540000e+000
      vertex   -6.440681e-001 -7.857686e-001 0.000000e+000
      vertex   -6.440681e-001 -7.857686e-001 5.080000e+000
    endloop
  endfacet
  facet normal -1.950902e-001 -9.807853e-001 -0.000000e+000
    outer loop
      vertex   -4.374072e-001 -2.198994e+000 2.540000e+000
      vertex   -8.748143e-001 -2.111989e+000 5.080000e+000
      vertex   -8.748143e-001 -2.111989e+000 0.000000e+000
    endloop
  endfacet
  facet normal 9.741472e-002 9.952439e-001 0.000000e+000
    outer loop
      vertex   -9.707162e-002 -9.917385e-001 2.540000e+000
      vertex   1.001974e-001 -1.011047e+000 0.000000e+000
      vertex   -2.943407e-001 -9.724298e-001 0.000000e+000
    endloop
  endfacet
  facet normal 0.000000e+000 -1.000000e+000 0.000000e+000
    outer loop
      vertex   3.134360e+001 -2.286000e+000 5.080000e+000
      vertex   1.795780e+001 -2.286000e+000 5.080000e+000
      vertex   3.134360e+001 -2.286000e+000 0.000000e+000
    endloop
  endfacet
  facet normal 0.000000e+000 0.000000e+000 -1.000000e+000
    outer loop
      vertex   3.115710e+001 -9.987355e-001 0.000000e+000
      vertex   3.134360e+001 -2.286000e+000 0.000000e+000
      vertex   3.078909e+001 -8.513397e-001 0.000000e+000
    endloop
  endfacet
  facet normal 9.741472e-002 9.952439e-001 0.000000e+000
    outer loop
      vertex   -9.707162e-002 -9.917385e-001 2.540000e+000
      vertex   1.001974e-001 -1.011047e+000 5.080000e+000
      vertex   1.001974e-001 -1.011047e+000 0.000000e+000
    endloop
  endfacet
  facet normal -2.908639e-001 9.567645e-001 -1.849852e-009
    outer loop
      vertex   2.898394e-001 -9.533946e-001 2.540000e+000
      vertex   4.794814e-001 -8.957419e-001 0.000000e+000
      vertex   1.001974e-001 -1.011047e+000 0.000000e+000
    endloop
  endfacet
  facet normal -2.908639e-001 9.567644e-001 0.000000e+000
    outer loop
      vertex   2.898394e-001 -9.533946e-001 2.540000e+000
      vertex   1.001974e-001 -1.011047e+000 0.000000e+000
      vertex   1.001974e-001 -1.011047e+000 5.080000e+000
    endloop
  endfacet
  facet normal 9.807853e-001 1.950902e-001 -0.000000e+000
    outer loop
      vertex   3.354259e+001 4.374072e-001 2.540000e+000
      vertex   3.345559e+001 8.748143e-001 0.000000e+000
      vertex   3.345559e+001 8.748143e-001 5.080000e+000
    endloop
  endfacet
  facet normal -2.908639e-001 9.567645e-001 0.000000e+000
    outer loop
      vertex   2.898394e-001 -9.533946e-001 2.540000e+000
      vertex   4.794814e-001 -8.957419e-001 5.080000e+000
      vertex   4.794814e-001 -8.957419e-001 0.000000e+000
    endloop
  endfacet
  facet normal -6.348611e-001 7.726263e-001 -1.479882e-008
    outer loop
      vertex   6.326250e-001 -7.699050e-001 2.540000e+000
      vertex   7.857686e-001 -6.440681e-001 0.000000e+000
      vertex   4.794814e-001 -8.957419e-001 0.000000e+000
    endloop
  endfacet
  facet normal -6.348612e-001 7.726262e-001 0.000000e+000
    outer loop
      vertex   6.326250e-001 -7.699050e-001 2.540000e+000
      vertex   4.794814e-001 -8.957419e-001 0.000000e+000
      vertex   4.794814e-001 -8.957419e-001 5.080000e+000
    endloop
  endfacet
  facet normal 9.807853e-001 1.950902e-001 0.000000e+000
    outer loop
      vertex   3.354259e+001 4.374072e-001 2.540000e+000
      vertex   3.362960e+001 -1.399771e-016 5.080000e+000
      vertex   3.362960e+001 -1.399771e-016 0.000000e+000
    endloop
  endfacet
  facet normal -6.348610e-001 7.726265e-001 0.000000e+000
    outer loop
      vertex   6.326250e-001 -7.699050e-001 2.540000e+000
      vertex   7.857686e-001 -6.440681e-001 5.080000e+000
      vertex   7.857686e-001 -6.440681e-001 0.000000e+000
    endloop
  endfacet
  facet normal -8.822064e-001 4.708628e-001 0.000000e+000
    outer loop
      vertex   8.790992e-001 -4.692044e-001 2.540000e+000
      vertex   9.724298e-001 -2.943407e-001 0.000000e+000
      vertex   7.857686e-001 -6.440681e-001 0.000000e+000
    endloop
  endfacet
  facet normal -8.822064e-001 4.708628e-001 0.000000e+000
    outer loop
      vertex   8.790992e-001 -4.692044e-001 2.540000e+000
      vertex   7.857686e-001 -6.440681e-001 0.000000e+000
      vertex   7.857686e-001 -6.440681e-001 5.080000e+000
    endloop
  endfacet
  facet normal 8.314686e-001 5.555718e-001 -0.000000e+000
    outer loop
      vertex   3.320782e+001 1.245630e+000 2.540000e+000
      vertex   3.296004e+001 1.616446e+000 0.000000e+000
      vertex   3.296004e+001 1.616446e+000 5.080000e+000
    endloop
  endfacet
  facet normal -8.822064e-001 4.708628e-001 0.000000e+000
    outer loop
      vertex   8.790992e-001 -4.692044e-001 2.540000e+000
      vertex   9.724298e-001 -2.943407e-001 5.080000e+000
      vertex   9.724298e-001 -2.943407e-001 0.000000e+000
    endloop
  endfacet
  facet normal 0.000000e+000 -1.000000e+000 0.000000e+000
    outer loop
      vertex   1.338580e+001 -2.286000e+000 5.080000e+000
      vertex   0.000000e+000 -2.286000e+000 5.080000e+000
      vertex   0.000000e+000 -2.286000e+000 0.000000e+000
    endloop
  endfacet
  facet normal 0.000000e+000 -1.000000e+000 -0.000000e+000
    outer loop
      vertex   3.134360e+001 -2.286000e+000 0.000000e+000
      vertex   1.795780e+001 -2.286000e+000 5.080000e+000
      vertex   0.000000e+000 -2.286000e+000 0.000000e+000
    endloop
  endfacet
  facet normal 0.000000e+000 -1.000000e+000 -0.000000e+000
    outer loop
      vertex   1.795780e+001 -2.286000e+000 5.080000e+000
      vertex   1.338580e+001 -2.286000e+000 5.080000e+000
      vertex   0.000000e+000 -2.286000e+000 0.000000e+000
    endloop
  endfacet
  facet normal 0.000000e+000 0.000000e+000 -1.000000e+000
    outer loop
      vertex   3.034952e+001 -2.098933e-001 0.000000e+000
      vertex   3.050551e+001 -5.743352e-001 0.000000e+000
      vertex   0.000000e+000 2.286000e+000 0.000000e+000
    endloop
  endfacet
  facet normal -9.567645e-001 -2.908639e-001 -1.849852e-009
    outer loop
      vertex   9.533946e-001 2.898394e-001 2.540000e+000
      vertex   8.957419e-001 4.794814e-001 0.000000e+000
      vertex   1.011047e+000 1.001974e-001 0.000000e+000
    endloop
  endfacet
  facet normal 0.000000e+000 0.000000e+000 -1.000000e+000
    outer loop
      vertex   3.078909e+001 -8.513397e-001 0.000000e+000
      vertex   3.134360e+001 -2.286000e+000 0.000000e+000
      vertex   3.050551e+001 -5.743352e-001 0.000000e+000
    endloop
  endfacet
  facet normal 8.314686e-001 5.555717e-001 0.000000e+000
    outer loop
      vertex   3.320782e+001 1.245630e+000 2.540000e+000
      vertex   3.345559e+001 8.748143e-001 5.080000e+000
      vertex   3.345559e+001 8.748143e-001 0.000000e+000
    endloop
  endfacet
  facet normal 0.000000e+000 1.000000e+000 0.000000e+000
    outer loop
      vertex   1.795780e+001 2.286000e+000 5.080000e+000
      vertex   0.000000e+000 2.286000e+000 0.000000e+000
      vertex   1.338580e+001 2.286000e+000 5.080000e+000
    endloop
  endfacet
  facet normal -7.726263e-001 -6.348611e-001 -1.479882e-008
    outer loop
      vertex   7.699050e-001 6.326250e-001 2.540000e+000
      vertex   6.440681e-001 7.857686e-001 0.000000e+000
      vertex   8.957419e-001 4.794814e-001 0.000000e+000
    endloop
  endfacet
  facet normal 0.000000e+000 1.000000e+000 0.000000e+000
    outer loop
      vertex   1.338580e+001 2.286000e+000 5.080000e+000
      vertex   0.000000e+000 2.286000e+000 0.000000e+000
      vertex   0.000000e+000 2.286000e+000 5.080000e+000
    endloop
  endfacet
  facet normal 0.000000e+000 1.000000e+000 0.000000e+000
    outer loop
      vertex   3.134360e+001 2.286000e+000 0.000000e+000
      vertex   0.000000e+000 2.286000e+000 0.000000e+000
      vertex   1.795780e+001 2.286000e+000 5.080000e+000
    endloop
  endfacet
  facet normal 0.000000e+000 1.000000e+000 -0.000000e+000
    outer loop
      vertex   3.134360e+001 2.286000e+000 5.080000e+000
      vertex   3.134360e+001 2.286000e+000 0.000000e+000
      vertex   1.795780e+001 2.286000e+000 5.080000e+000
    endloop
  endfacet
  facet normal -4.708628e-001 -8.822064e-001 0.000000e+000
    outer loop
      vertex   4.692044e-001 8.790992e-001 2.540000e+000
      vertex   2.943407e-001 9.724298e-001 0.000000e+000
      vertex   6.440681e-001 7.857686e-001 0.000000e+000
    endloop
  endfacet
  facet normal 5.555708e-001 8.314692e-001 1.973178e-008
    outer loop
      vertex   3.258923e+001 1.864217e+000 2.540000e+000
      vertex   3.296004e+001 1.616446e+000 0.000000e+000
      vertex   3.221841e+001 2.111989e+000 0.000000e+000
    endloop
  endfacet
  facet normal 0.000000e+000 0.000000e+000 -1.000000e+000
    outer loop
      vertex   3.134360e+001 -2.286000e+000 0.000000e+000
      vertex   1.011047e+000 1.001974e-001 0.000000e+000
      vertex   8.957419e-001 4.794814e-001 0.000000e+000
    endloop
  endfacet
  facet normal 0.000000e+000 0.000000e+000 -1.000000e+000
    outer loop
      vertex   3.134360e+001 -2.286000e+000 0.000000e+000
      vertex   8.957419e-001 4.794814e-001 0.000000e+000
      vertex   0.000000e+000 2.286000e+000 0.000000e+000
    endloop
  endfacet
  facet normal -9.741472e-002 -9.952439e-001 0.000000e+000
    outer loop
      vertex   9.707162e-002 9.917385e-001 2.540000e+000
      vertex   -1.001974e-001 1.011047e+000 0.000000e+000
      vertex   2.943407e-001 9.724298e-001 0.000000e+000
    endloop
  endfacet
  facet normal 0.000000e+000 0.000000e+000 -1.000000e+000
    outer loop
      vertex   3.134360e+001 -2.286000e+000 0.000000e+000
      vertex   9.724298e-001 -2.943407e-001 0.000000e+000
      vertex   1.011047e+000 1.001974e-001 0.000000e+000
    endloop
  endfacet
  facet normal 0.000000e+000 0.000000e+000 -1.000000e+000
    outer loop
      vertex   0.000000e+000 2.286000e+000 0.000000e+000
      vertex   6.440681e-001 7.857686e-001 0.000000e+000
      vertex   -8.748143e-001 2.111989e+000 0.000000e+000
    endloop
  endfacet
  facet normal 5.555709e-001 8.314692e-001 -0.000000e+000
    outer loop
      vertex   3.258923e+001 1.864217e+000 2.540000e+000
      vertex   3.221841e+001 2.111989e+000 0.000000e+000
      vertex   3.221841e+001 2.111989e+000 5.080000e+000
    endloop
  endfacet
  facet normal 2.908639e-001 -9.567645e-001 -1.849852e-009
    outer loop
      vertex   -2.898394e-001 9.533946e-001 2.540000e+000
      vertex   -4.794814e-001 8.957419e-001 0.000000e+000
      vertex   -1.001974e-001 1.011047e+000 0.000000e+000
    endloop
  endfacet
  facet normal 0.000000e+000 0.000000e+000 -1.000000e+000
    outer loop
      vertex   -2.286000e+000 1.399771e-016 0.000000e+000
      vertex   -8.748143e-001 -2.111989e+000 0.000000e+000
      vertex   -2.111989e+000 -8.748143e-001 0.000000e+000
    endloop
  endfacet
  facet normal 0.000000e+000 0.000000e+000 -1.000000e+000
    outer loop
      vertex   0.000000e+000 -2.286000e+000 0.000000e+000
      vertex   -8.748143e-001 -2.111989e+000 0.000000e+000
      vertex   -2.286000e+000 1.399771e-016 0.000000e+000
    endloop
  endfacet
  facet normal 0.000000e+000 0.000000e+000 -1.000000e+000
    outer loop
      vertex   -8.748143e-001 -2.111989e+000 0.000000e+000
      vertex   -1.616446e+000 -1.616446e+000 0.000000e+000
      vertex   -2.111989e+000 -8.748143e-001 0.000000e+000
    endloop
  endfacet
  facet normal 6.348611e-001 -7.726263e-001 -1.479882e-008
    outer loop
      vertex   -6.326250e-001 7.699050e-001 2.540000e+000
      vertex   -7.857686e-001 6.440681e-001 0.000000e+000
      vertex   -4.794814e-001 8.957419e-001 0.000000e+000
    endloop
  endfacet
  facet normal 5.555707e-001 8.314694e-001 0.000000e+000
    outer loop
      vertex   3.258923e+001 1.864217e+000 2.540000e+000
      vertex   3.296004e+001 1.616446e+000 5.080000e+000
      vertex   3.296004e+001 1.616446e+000 0.000000e+000
    endloop
  endfacet
  facet normal 0.000000e+000 0.000000e+000 -1.000000e+000
    outer loop
      vertex   -2.111989e+000 8.748143e-001 0.000000e+000
      vertex   -6.440681e-001 -7.857686e-001 0.000000e+000
      vertex   -2.286000e+000 1.399771e-016 0.000000e+000
    endloop
  endfacet
  facet normal 0.000000e+000 0.000000e+000 -1.000000e+000
    outer loop
      vertex   -8.957419e-001 -4.794814e-001 0.000000e+000
      vertex   -6.440681e-001 -7.857686e-001 0.000000e+000
      vertex   -2.111989e+000 8.748143e-001 0.000000e+000
    endloop
  endfacet
  facet normal 8.822064e-001 -4.708628e-001 0.000000e+000
    outer loop
      vertex   -8.790992e-001 4.692044e-001 2.540000e+000
      vertex   -9.724298e-001 2.943407e-001 0.000000e+000
      vertex   -7.857686e-001 6.440681e-001 0.000000e+000
    endloop
  endfacet
  facet normal 0.000000e+000 0.000000e+000 -1.000000e+000
    outer loop
      vertex   -6.440681e-001 -7.857686e-001 0.000000e+000
      vertex   0.000000e+000 -2.286000e+000 0.000000e+000
      vertex   -2.286000e+000 1.399771e-016 0.000000e+000
    endloop
  endfacet
  facet normal 1.950903e-001 9.807853e-001 1.216791e-007
    outer loop
      vertex   3.178101e+001 2.198994e+000 2.540000e+000
      vertex   3.221841e+001 2.111989e+000 0.000000e+000
      vertex   3.134360e+001 2.286000e+000 0.000000e+000
    endloop
  endfacet
  facet normal 0.000000e+000 0.000000e+000 -1.000000e+000
    outer loop
      vertex   -1.011047e+000 -1.001974e-001 0.000000e+000
      vertex   -8.957419e-001 -4.794814e-001 0.000000e+000
      vertex   -2.111989e+000 8.748143e-001 0.000000e+000
    endloop
  endfacet
  facet normal 9.952439e-001 -9.741472e-002 0.000000e+000
    outer loop
      vertex   -9.917385e-001 9.707162e-002 2.540000e+000
      vertex   -1.011047e+000 -1.001974e-001 0.000000e+000
      vertex   -9.724298e-001 2.943407e-001 0.000000e+000
    endloop
  endfacet
  facet normal 0.000000e+000 0.000000e+000 -1.000000e+000
    outer loop
      vertex   -2.943407e-001 -9.724298e-001 0.000000e+000
      vertex   0.000000e+000 -2.286000e+000 0.000000e+000
      vertex   -6.440681e-001 -7.857686e-001 0.000000e+000
    endloop
  endfacet
  facet normal 0.000000e+000 0.000000e+000 -1.000000e+000
    outer loop
      vertex   1.001974e-001 -1.011047e+000 0.000000e+000
      vertex   0.000000e+000 -2.286000e+000 0.000000e+000
      vertex   -2.943407e-001 -9.724298e-001 0.000000e+000
    endloop
  endfacet
  facet normal 0.000000e+000 0.000000e+000 -1.000000e+000
    outer loop
      vertex   -9.724298e-001 2.943407e-001 0.000000e+000
      vertex   -1.011047e+000 -1.001974e-001 0.000000e+000
      vertex   -2.111989e+000 8.748143e-001 0.000000e+000
    endloop
  endfacet
  facet normal 9.567645e-001 2.908639e-001 -1.849852e-009
    outer loop
      vertex   -9.533946e-001 -2.898394e-001 2.540000e+000
      vertex   -8.957419e-001 -4.794814e-001 0.000000e+000
      vertex   -1.011047e+000 -1.001974e-001 0.000000e+000
    endloop
  endfacet
  facet normal 1.950909e-001 9.807851e-001 -0.000000e+000
    outer loop
      vertex   3.178101e+001 2.198994e+000 2.540000e+000
      vertex   3.134360e+001 2.286000e+000 0.000000e+000
      vertex   3.134360e+001 2.286000e+000 5.080000e+000
    endloop
  endfacet
  facet normal 0.000000e+000 0.000000e+000 -1.000000e+000
    outer loop
      vertex   -1.616446e+000 1.616446e+000 0.000000e+000
      vertex   -7.857686e-001 6.440681e-001 0.000000e+000
      vertex   -2.111989e+000 8.748143e-001 0.000000e+000
    endloop
  endfacet
  facet normal 0.000000e+000 0.000000e+000 -1.000000e+000
    outer loop
      vertex   7.857686e-001 -6.440681e-001 0.000000e+000
      vertex   0.000000e+000 -2.286000e+000 0.000000e+000
      vertex   4.794814e-001 -8.957419e-001 0.000000e+000
    endloop
  endfacet
  facet normal 7.726263e-001 6.348611e-001 -1.479882e-008
    outer loop
      vertex   -7.699050e-001 -6.326250e-001 2.540000e+000
      vertex   -6.440681e-001 -7.857686e-001 0.000000e+000
      vertex   -8.957419e-001 -4.794814e-001 0.000000e+000
    endloop
  endfacet
  facet normal 0.000000e+000 0.000000e+000 -1.000000e+000
    outer loop
      vertex   -7.857686e-001 6.440681e-001 0.000000e+000
      vertex   -9.724298e-001 2.943407e-001 0.000000e+000
      vertex   -2.111989e+000 8.748143e-001 0.000000e+000
    endloop
  endfacet
  facet normal 0.000000e+000 0.000000e+000 -1.000000e+000
    outer loop
      vertex   -4.794814e-001 8.957419e-001 0.000000e+000
      vertex   -7.857686e-001 6.440681e-001 0.000000e+000
      vertex   -1.616446e+000 1.616446e+000 0.000000e+000
    endloop
  endfacet
  facet normal 0.000000e+000 0.000000e+000 -1.000000e+000
    outer loop
      vertex   9.724298e-001 -2.943407e-001 0.000000e+000
      vertex   0.000000e+000 -2.286000e+000 0.000000e+000
      vertex   7.857686e-001 -6.440681e-001 0.000000e+000
    endloop
  endfacet
  facet normal 4.708628e-001 8.822064e-001 0.000000e+000
    outer loop
      vertex   -4.692044e-001 -8.790992e-001 2.540000e+000
      vertex   -2.943407e-001 -9.724298e-001 0.000000e+000
      vertex   -6.440681e-001 -7.857686e-001 0.000000e+000
    endloop
  endfacet
  facet normal 9.807853e-001 -1.950902e-001 0.000000e+000
    outer loop
      vertex   3.354259e+001 -4.374072e-001 2.540000e+000
      vertex   3.345559e+001 -8.748143e-001 0.000000e+000
      vertex   3.362960e+001 -1.399771e-016 0.000000e+000
    endloop
  endfacet
  facet normal 8.314686e-001 -5.555718e-001 0.000000e+000
    outer loop
      vertex   3.320782e+001 -1.245630e+000 2.540000e+000
      vertex   3.296004e+001 -1.616446e+000 5.080000e+000
      vertex   3.296004e+001 -1.616446e+000 0.000000e+000
    endloop
  endfacet
  facet normal 4.708628e-001 8.822064e-001 0.000000e+000
    outer loop
      vertex   -4.692044e-001 -8.790992e-001 2.540000e+000
      vertex   -2.943407e-001 -9.724298e-001 5.080000e+000
      vertex   -2.943407e-001 -9.724298e-001 0.000000e+000
    endloop
  endfacet
  facet normal 9.807853e-001 1.950902e-001 0.000000e+000
    outer loop
      vertex   3.354259e+001 4.374072e-001 2.540000e+000
      vertex   3.362960e+001 -1.399771e-016 0.000000e+000
      vertex   3.345559e+001 8.748143e-001 0.000000e+000
    endloop
  endfacet
  facet normal 9.807853e-001 -1.950902e-001 0.000000e+000
    outer loop
      vertex   3.354259e+001 -4.374072e-001 2.540000e+000
      vertex   3.345559e+001 -8.748143e-001 5.080000e+000
      vertex   3.345559e+001 -8.748143e-001 0.000000e+000
    endloop
  endfacet
  facet normal 9.807853e-001 -1.950902e-001 0.000000e+000
    outer loop
      vertex   3.354259e+001 -4.374072e-001 2.540000e+000
      vertex   3.362960e+001 -1.399771e-016 0.000000e+000
      vertex   3.362960e+001 -1.399771e-016 5.080000e+000
    endloop
  endfacet
  facet normal 8.314686e-001 -5.555717e-001 0.000000e+000
    outer loop
      vertex   3.320782e+001 -1.245630e+000 2.540000e+000
      vertex   3.345559e+001 -8.748143e-001 0.000000e+000
      vertex   3.345559e+001 -8.748143e-001 5.080000e+000
    endloop
  endfacet
  facet normal 8.314686e-001 5.555717e-001 -6.577244e-009
    outer loop
      vertex   3.320782e+001 1.245630e+000 2.540000e+000
      vertex   3.345559e+001 8.748143e-001 0.000000e+000
      vertex   3.296004e+001 1.616446e+000 0.000000e+000
    endloop
  endfacet
  facet normal 0.000000e+000 0.000000e+000 -1.000000e+000
    outer loop
      vertex   3.050551e+001 -5.743352e-001 0.000000e+000
      vertex   3.134360e+001 -2.286000e+000 0.000000e+000
      vertex   0.000000e+000 2.286000e+000 0.000000e+000
    endloop
  endfacet
  facet normal 0.000000e+000 0.000000e+000 -1.000000e+000
    outer loop
      vertex   3.134360e+001 -2.286000e+000 0.000000e+000
      vertex   0.000000e+000 -2.286000e+000 0.000000e+000
      vertex   9.724298e-001 -2.943407e-001 0.000000e+000
    endloop
  endfacet
  facet normal 1.950896e-001 9.807854e-001 0.000000e+000
    outer loop
      vertex   3.178101e+001 2.198994e+000 2.540000e+000
      vertex   3.221841e+001 2.111989e+000 5.080000e+000
      vertex   3.221841e+001 2.111989e+000 0.000000e+000
    endloop
  endfacet
  facet normal 1.950903e-001 -9.807853e-001 1.183904e-007
    outer loop
      vertex   3.178101e+001 -2.198994e+000 2.540000e+000
      vertex   3.134360e+001 -2.286000e+000 0.000000e+000
      vertex   3.221841e+001 -2.111989e+000 0.000000e+000
    endloop
  endfacet
  facet normal 5.555708e-001 -8.314692e-001 1.973178e-008
    outer loop
      vertex   3.258923e+001 -1.864217e+000 2.540000e+000
      vertex   3.221841e+001 -2.111989e+000 0.000000e+000
      vertex   3.296004e+001 -1.616446e+000 0.000000e+000
    endloop
  endfacet
  facet normal 1.950909e-001 -9.807851e-001 0.000000e+000
    outer loop
      vertex   3.178101e+001 -2.198994e+000 2.540000e+000
      vertex   3.134360e+001 -2.286000e+000 5.080000e+000
      vertex   3.134360e+001 -2.286000e+000 0.000000e+000
    endloop
  endfacet
  facet normal 0.000000e+000 0.000000e+000 -1.000000e+000
    outer loop
      vertex   4.794814e-001 -8.957419e-001 0.000000e+000
      vertex   0.000000e+000 -2.286000e+000 0.000000e+000
      vertex   1.001974e-001 -1.011047e+000 0.000000e+000
    endloop
  endfacet
  facet normal 8.314686e-001 -5.555717e-001 -6.577244e-009
    outer loop
      vertex   3.320782e+001 -1.245630e+000 2.540000e+000
      vertex   3.296004e+001 -1.616446e+000 0.000000e+000
      vertex   3.345559e+001 -8.748143e-001 0.000000e+000
    endloop
  endfacet
  facet normal 5.555709e-001 -8.314692e-001 0.000000e+000
    outer loop
      vertex   3.258923e+001 -1.864217e+000 2.540000e+000
      vertex   3.221841e+001 -2.111989e+000 5.080000e+000
      vertex   3.221841e+001 -2.111989e+000 0.000000e+000
    endloop
  endfacet
  facet normal 5.555707e-001 -8.314694e-001 0.000000e+000
    outer loop
      vertex   3.258923e+001 -1.864217e+000 2.540000e+000
      vertex   3.296004e+001 -1.616446e+000 0.000000e+000
      vertex   3.296004e+001 -1.616446e+000 5.080000e+000
    endloop
  endfacet
  facet normal 1.950896e-001 -9.807854e-001 0.000000e+000
    outer loop
      vertex   3.178101e+001 -2.198994e+000 2.540000e+000
      vertex   3.221841e+001 -2.111989e+000 0.000000e+000
      vertex   3.221841e+001 -2.111989e+000 5.080000e+000
    endloop
  endfacet
  facet normal 9.999311e-001 1.173979e-002 0.000000e+000
    outer loop
      vertex   3.034719e+001 -1.169517e-002 2.540000e+000
      vertex   3.034486e+001 1.865029e-001 5.080000e+000
      vertex   3.034952e+001 -2.098933e-001 5.080000e+000
    endloop
  endfacet
  facet normal 1.950903e-001 -9.807853e-001 -1.216791e-007
    outer loop
      vertex   3.178101e+001 -2.198994e+000 2.540000e+000
      vertex   3.221841e+001 -2.111989e+000 5.080000e+000
      vertex   3.134360e+001 -2.286000e+000 5.080000e+000
    endloop
  endfacet
  facet normal 4.708628e-001 8.822064e-001 0.000000e+000
    outer loop
      vertex   -4.692044e-001 -8.790992e-001 2.540000e+000
      vertex   -6.440681e-001 -7.857686e-001 5.080000e+000
      vertex   -2.943407e-001 -9.724298e-001 5.080000e+000
    endloop
  endfacet
  facet normal -6.348611e-001 7.726263e-001 1.109911e-008
    outer loop
      vertex   6.326250e-001 -7.699050e-001 2.540000e+000
      vertex   4.794814e-001 -8.957419e-001 5.080000e+000
      vertex   7.857686e-001 -6.440681e-001 5.080000e+000
    endloop
  endfacet
  facet normal -6.987588e-001 -7.153573e-001 -7.399405e-009
    outer loop
      vertex   3.203990e+001 7.128375e-001 2.540000e+000
      vertex   3.218169e+001 5.743352e-001 5.080000e+000
      vertex   3.189811e+001 8.513397e-001 5.080000e+000
    endloop
  endfacet
  facet normal 2.908639e-001 -9.567645e-001 0.000000e+000
    outer loop
      vertex   -2.898394e-001 9.533946e-001 2.540000e+000
      vertex   -1.001974e-001 1.011047e+000 5.080000e+000
      vertex   -4.794814e-001 8.957419e-001 5.080000e+000
    endloop
  endfacet
  facet normal 5.555708e-001 -8.314692e-001 -1.973178e-008
    outer loop
      vertex   3.258923e+001 -1.864217e+000 2.540000e+000
      vertex   3.296004e+001 -1.616446e+000 5.080000e+000
      vertex   3.221841e+001 -2.111989e+000 5.080000e+000
    endloop
  endfacet
  facet normal -3.718148e-001 -9.283069e-001 1.387392e-007
    outer loop
      vertex   3.171410e+001 9.250376e-001 2.540000e+000
      vertex   3.189811e+001 8.513397e-001 5.080000e+000
      vertex   3.153010e+001 9.987355e-001 5.080000e+000
    endloop
  endfacet
  facet normal 9.807853e-001 1.950902e-001 0.000000e+000
    outer loop
      vertex   3.354259e+001 4.374072e-001 2.540000e+000
      vertex   3.345559e+001 8.748143e-001 5.080000e+000
      vertex   3.362960e+001 -1.399771e-016 5.080000e+000
    endloop
  endfacet
  facet normal -2.908639e-001 9.567645e-001 0.000000e+000
    outer loop
      vertex   2.898394e-001 -9.533946e-001 2.540000e+000
      vertex   1.001974e-001 -1.011047e+000 5.080000e+000
      vertex   4.794814e-001 -8.957419e-001 5.080000e+000
    endloop
  endfacet
  facet normal 8.314686e-001 -5.555717e-001 6.577244e-009
    outer loop
      vertex   3.320782e+001 -1.245630e+000 2.540000e+000
      vertex   3.345559e+001 -8.748143e-001 5.080000e+000
      vertex   3.296004e+001 -1.616446e+000 5.080000e+000
    endloop
  endfacet
  facet normal -9.807853e-001 -1.950904e-001 -4.604076e-008
    outer loop
      vertex   -2.198994e+000 -4.374072e-001 2.540000e+000
      vertex   -2.111989e+000 -8.748143e-001 5.080000e+000
      vertex   -2.286000e+000 1.399771e-016 5.080000e+000
    endloop
  endfacet
  facet normal -5.555701e-001 -8.314697e-001 -1.315450e-008
    outer loop
      vertex   -1.245630e+000 -1.864217e+000 2.540000e+000
      vertex   -8.748143e-001 -2.111989e+000 5.080000e+000
      vertex   -1.616446e+000 -1.616446e+000 5.080000e+000
    endloop
  endfacet
  facet normal -1.950904e-001 -9.807853e-001 -4.604076e-008
    outer loop
      vertex   -4.374072e-001 -2.198994e+000 2.540000e+000
      vertex   0.000000e+000 -2.286000e+000 5.080000e+000
      vertex   -8.748143e-001 -2.111989e+000 5.080000e+000
    endloop
  endfacet
  facet normal 9.807853e-001 -1.950902e-001 0.000000e+000
    outer loop
      vertex   3.354259e+001 -4.374072e-001 2.540000e+000
      vertex   3.362960e+001 -1.399771e-016 5.080000e+000
      vertex   3.345559e+001 -8.748143e-001 5.080000e+000
    endloop
  endfacet
  facet normal 7.726263e-001 6.348611e-001 1.109911e-008
    outer loop
      vertex   -7.699050e-001 -6.326250e-001 2.540000e+000
      vertex   -8.957419e-001 -4.794814e-001 5.080000e+000
      vertex   -6.440681e-001 -7.857686e-001 5.080000e+000
    endloop
  endfacet
  facet normal -8.314697e-001 -5.555701e-001 -1.315450e-008
    outer loop
      vertex   -1.864217e+000 -1.245630e+000 2.540000e+000
      vertex   -1.616446e+000 -1.616446e+000 5.080000e+000
      vertex   -2.111989e+000 -8.748143e-001 5.080000e+000
    endloop
  endfacet
  facet normal 1.950903e-001 9.807853e-001 -1.183904e-007
    outer loop
      vertex   3.178101e+001 2.198994e+000 2.540000e+000
      vertex   3.134360e+001 2.286000e+000 5.080000e+000
      vertex   3.221841e+001 2.111989e+000 5.080000e+000
    endloop
  endfacet
  facet normal -8.314697e-001 5.555701e-001 -1.315450e-008
    outer loop
      vertex   -1.864217e+000 1.245630e+000 2.540000e+000
      vertex   -2.111989e+000 8.748143e-001 5.080000e+000
      vertex   -1.616446e+000 1.616446e+000 5.080000e+000
    endloop
  endfacet
  facet normal 9.567645e-001 2.908639e-001 0.000000e+000
    outer loop
      vertex   -9.533946e-001 -2.898394e-001 2.540000e+000
      vertex   -1.011047e+000 -1.001974e-001 5.080000e+000
      vertex   -8.957419e-001 -4.794814e-001 5.080000e+000
    endloop
  endfacet
  facet normal -9.807853e-001 1.950904e-001 -4.604076e-008
    outer loop
      vertex   -2.198994e+000 4.374072e-001 2.540000e+000
      vertex   -2.286000e+000 1.399771e-016 5.080000e+000
      vertex   -2.111989e+000 8.748143e-001 5.080000e+000
    endloop
  endfacet
  facet normal 9.952439e-001 -9.741472e-002 0.000000e+000
    outer loop
      vertex   -9.917385e-001 9.707162e-002 2.540000e+000
      vertex   -9.724298e-001 2.943407e-001 5.080000e+000
      vertex   -1.011047e+000 -1.001974e-001 5.080000e+000
    endloop
  endfacet
  facet normal -5.555701e-001 8.314697e-001 -1.315450e-008
    outer loop
      vertex   -1.245630e+000 1.864217e+000 2.540000e+000
      vertex   -1.616446e+000 1.616446e+000 5.080000e+000
      vertex   -8.748143e-001 2.111989e+000 5.080000e+000
    endloop
  endfacet
  facet normal 9.193248e-001 3.934997e-001 -3.459224e-007
    outer loop
      vertex   3.042751e+001 -3.921142e-001 2.540000e+000
      vertex   3.034952e+001 -2.098933e-001 5.080000e+000
      vertex   3.050551e+001 -5.743352e-001 5.080000e+000
    endloop
  endfacet
  facet normal -1.950904e-001 9.807853e-001 -4.604076e-008
    outer loop
      vertex   -4.374072e-001 2.198994e+000 2.540000e+000
      vertex   -8.748143e-001 2.111989e+000 5.080000e+000
      vertex   0.000000e+000 2.286000e+000 5.080000e+000
    endloop
  endfacet
  facet normal 8.822064e-001 -4.708628e-001 0.000000e+000
    outer loop
      vertex   -8.790992e-001 4.692044e-001 2.540000e+000
      vertex   -7.857686e-001 6.440681e-001 5.080000e+000
      vertex   -9.724298e-001 2.943407e-001 5.080000e+000
    endloop
  endfacet
  facet normal 7.153576e-001 -6.987587e-001 -7.399412e-009
    outer loop
      vertex   3.063076e+001 6.962980e-001 2.540000e+000
      vertex   3.076926e+001 8.380902e-001 5.080000e+000
      vertex   3.049226e+001 5.545058e-001 5.080000e+000
    endloop
  endfacet
  facet normal 6.348611e-001 -7.726263e-001 1.109911e-008
    outer loop
      vertex   -6.326250e-001 7.699050e-001 2.540000e+000
      vertex   -4.794814e-001 8.957419e-001 5.080000e+000
      vertex   -7.857686e-001 6.440681e-001 5.080000e+000
    endloop
  endfacet
  facet normal 9.283071e-001 -3.718146e-001 0.000000e+000
    outer loop
      vertex   3.041856e+001 3.705043e-001 2.540000e+000
      vertex   3.049226e+001 5.545058e-001 5.080000e+000
      vertex   3.034486e+001 1.865029e-001 5.080000e+000
    endloop
  endfacet
  facet normal 1.173662e-002 -9.999311e-001 1.173499e-008
    outer loop
      vertex   3.133191e+001 9.964092e-001 2.540000e+000
      vertex   3.153010e+001 9.987355e-001 5.080000e+000
      vertex   3.113371e+001 9.940829e-001 5.080000e+000
    endloop
  endfacet
  facet normal 3.934993e-001 -9.193250e-001 -1.590870e-007
    outer loop
      vertex   3.095148e+001 9.160866e-001 2.540000e+000
      vertex   3.113371e+001 9.940829e-001 5.080000e+000
      vertex   3.076926e+001 8.380902e-001 5.080000e+000
    endloop
  endfacet
  facet normal 5.555708e-001 8.314692e-001 -1.973178e-008
    outer loop
      vertex   3.258923e+001 1.864217e+000 2.540000e+000
      vertex   3.221841e+001 2.111989e+000 5.080000e+000
      vertex   3.296004e+001 1.616446e+000 5.080000e+000
    endloop
  endfacet
  facet normal -9.999312e-001 -1.173017e-002 -7.508665e-007
    outer loop
      vertex   3.234001e+001 1.169517e-002 2.540000e+000
      vertex   3.234233e+001 -1.865029e-001 5.080000e+000
      vertex   3.233768e+001 2.098933e-001 5.080000e+000
    endloop
  endfacet
  facet normal -4.708628e-001 -8.822064e-001 0.000000e+000
    outer loop
      vertex   4.692044e-001 8.790992e-001 2.540000e+000
      vertex   6.440681e-001 7.857686e-001 5.080000e+000
      vertex   2.943407e-001 9.724298e-001 5.080000e+000
    endloop
  endfacet
  facet normal -9.193230e-001 -3.935038e-001 -6.899936e-007
    outer loop
      vertex   3.225969e+001 3.921142e-001 2.540000e+000
      vertex   3.233768e+001 2.098933e-001 5.080000e+000
      vertex   3.218169e+001 5.743352e-001 5.080000e+000
    endloop
  endfacet
  facet normal -7.726263e-001 -6.348611e-001 1.109911e-008
    outer loop
      vertex   7.699050e-001 6.326250e-001 2.540000e+000
      vertex   8.957419e-001 4.794814e-001 5.080000e+000
      vertex   6.440681e-001 7.857686e-001 5.080000e+000
    endloop
  endfacet
  facet normal -9.283071e-001 3.718146e-001 -6.973941e-007
    outer loop
      vertex   3.226864e+001 -3.705043e-001 2.540000e+000
      vertex   3.219494e+001 -5.545058e-001 5.080000e+000
      vertex   3.234233e+001 -1.865029e-001 5.080000e+000
    endloop
  endfacet
  facet normal -3.935010e-001 9.193242e-001 -9.249280e-009
    outer loop
      vertex   3.173571e+001 -9.160866e-001 2.540000e+000
      vertex   3.155349e+001 -9.940829e-001 5.080000e+000
      vertex   3.191793e+001 -8.380902e-001 5.080000e+000
    endloop
  endfacet
  facet normal -7.153576e-001 6.987587e-001 5.290580e-007
    outer loop
      vertex   3.205643e+001 -6.962980e-001 2.540000e+000
      vertex   3.191793e+001 -8.380902e-001 5.080000e+000
      vertex   3.219494e+001 -5.545058e-001 5.080000e+000
    endloop
  endfacet
  facet normal -9.567645e-001 -2.908639e-001 0.000000e+000
    outer loop
      vertex   9.533946e-001 2.898394e-001 2.540000e+000
      vertex   1.011047e+000 1.001974e-001 5.080000e+000
      vertex   8.957419e-001 4.794814e-001 5.080000e+000
    endloop
  endfacet
  facet normal -1.173662e-002 9.999311e-001 1.173499e-008
    outer loop
      vertex   3.135530e+001 -9.964092e-001 2.540000e+000
      vertex   3.115710e+001 -9.987355e-001 5.080000e+000
      vertex   3.155349e+001 -9.940829e-001 5.080000e+000
    endloop
  endfacet
  facet normal 3.718148e-001 9.283069e-001 -1.405891e-007
    outer loop
      vertex   3.097309e+001 -9.250376e-001 2.540000e+000
      vertex   3.078909e+001 -8.513397e-001 5.080000e+000
      vertex   3.115710e+001 -9.987355e-001 5.080000e+000
    endloop
  endfacet
  facet normal -8.822064e-001 4.708628e-001 0.000000e+000
    outer loop
      vertex   8.790992e-001 -4.692044e-001 2.540000e+000
      vertex   7.857686e-001 -6.440681e-001 5.080000e+000
      vertex   9.724298e-001 -2.943407e-001 5.080000e+000
    endloop
  endfacet
  facet normal 6.987588e-001 7.153573e-001 -7.399405e-009
    outer loop
      vertex   3.064730e+001 -7.128375e-001 2.540000e+000
      vertex   3.050551e+001 -5.743352e-001 5.080000e+000
      vertex   3.078909e+001 -8.513397e-001 5.080000e+000
    endloop
  endfacet
  facet normal 8.314686e-001 5.555717e-001 6.577244e-009
    outer loop
      vertex   3.320782e+001 1.245630e+000 2.540000e+000
      vertex   3.296004e+001 1.616446e+000 5.080000e+000
      vertex   3.345559e+001 8.748143e-001 5.080000e+000
    endloop
  endfacet
  facet normal -9.952439e-001 9.741472e-002 0.000000e+000
    outer loop
      vertex   9.917385e-001 -9.707162e-002 2.540000e+000
      vertex   9.724298e-001 -2.943407e-001 5.080000e+000
      vertex   1.011047e+000 1.001974e-001 5.080000e+000
    endloop
  endfacet
  facet normal 9.741472e-002 9.952439e-001 0.000000e+000
    outer loop
      vertex   -9.707162e-002 -9.917385e-001 2.540000e+000
      vertex   -2.943407e-001 -9.724298e-001 5.080000e+000
      vertex   1.001974e-001 -1.011047e+000 5.080000e+000
    endloop
  endfacet
  facet normal -9.741472e-002 -9.952439e-001 0.000000e+000
    outer loop
      vertex   9.707162e-002 9.917385e-001 2.540000e+000
      vertex   2.943407e-001 9.724298e-001 5.080000e+000
      vertex   -1.001974e-001 1.011047e+000 5.080000e+000
    endloop
  endfacet
  facet normal -0.000000e+000 0.000000e+000 1.000000e+000
    outer loop
      vertex   1.338580e+001 2.286000e+000 5.080000e+000
      vertex   0.000000e+000 2.286000e+000 5.080000e+000
      vertex   1.338580e+001 -2.286000e+000 5.080000e+000
    endloop
  endfacet
  facet normal 0.000000e+000 0.000000e+000 1.000000e+000
    outer loop
      vertex   3.296004e+001 1.616446e+000 5.080000e+000
      vertex   3.221841e+001 2.111989e+000 5.080000e+000
      vertex   3.345559e+001 8.748143e-001 5.080000e+000
    endloop
  endfacet
  facet normal 0.000000e+000 -1.000000e+000 0.000000e+000
    outer loop
      vertex   1.795780e+001 -2.286000e+000 9.144000e+001
      vertex   1.338580e+001 -2.286000e+000 9.144000e+001
      vertex   1.795780e+001 -2.286000e+000 5.080000e+000
    endloop
  endfacet
  facet normal 0.000000e+000 0.000000e+000 1.000000e+000
    outer loop
      vertex   3.345559e+001 8.748143e-001 5.080000e+000
      vertex   3.221841e+001 2.111989e+000 5.080000e+000
      vertex   3.362960e+001 -1.399771e-016 5.080000e+000
    endloop
  endfacet
  facet normal 0.000000e+000 0.000000e+000 1.000000e+000
    outer loop
      vertex   3.221841e+001 2.111989e+000 5.080000e+000
      vertex   3.134360e+001 2.286000e+000 5.080000e+000
      vertex   3.362960e+001 -1.399771e-016 5.080000e+000
    endloop
  endfacet
  facet normal -0.000000e+000 -0.000000e+000 1.000000e+000
    outer loop
      vertex   -2.111989e+000 -8.748143e-001 5.080000e+000
      vertex   -1.616446e+000 -1.616446e+000 5.080000e+000
      vertex   -8.748143e-001 -2.111989e+000 5.080000e+000
    endloop
  endfacet
  facet normal 0.000000e+000 0.000000e+000 1.000000e+000
    outer loop
      vertex   0.000000e+000 -2.286000e+000 5.080000e+000
      vertex   -2.111989e+000 -8.748143e-001 5.080000e+000
      vertex   -8.748143e-001 -2.111989e+000 5.080000e+000
    endloop
  endfacet
  facet normal -0.000000e+000 -0.000000e+000 1.000000e+000
    outer loop
      vertex   -2.286000e+000 1.399771e-016 5.080000e+000
      vertex   -2.111989e+000 -8.748143e-001 5.080000e+000
      vertex   0.000000e+000 -2.286000e+000 5.080000e+000
    endloop
  endfacet
  facet normal 0.000000e+000 0.000000e+000 1.000000e+000
    outer loop
      vertex   -6.440681e-001 -7.857686e-001 5.080000e+000
      vertex   -2.286000e+000 1.399771e-016 5.080000e+000
      vertex   0.000000e+000 -2.286000e+000 5.080000e+000
    endloop
  endfacet
  facet normal 0.000000e+000 0.000000e+000 1.000000e+000
    outer loop
      vertex   -8.957419e-001 -4.794814e-001 5.080000e+000
      vertex   -2.286000e+000 1.399771e-016 5.080000e+000
      vertex   -6.440681e-001 -7.857686e-001 5.080000e+000
    endloop
  endfacet
  facet normal 0.000000e+000 0.000000e+000 1.000000e+000
    outer loop
      vertex   -2.943407e-001 -9.724298e-001 5.080000e+000
      vertex   -6.440681e-001 -7.857686e-001 5.080000e+000
      vertex   0.000000e+000 -2.286000e+000 5.080000e+000
    endloop
  endfacet
  facet normal -0.000000e+000 0.000000e+000 1.000000e+000
    outer loop
      vertex   -2.111989e+000 8.748143e-001 5.080000e+000
      vertex   -2.286000e+000 1.399771e-016 5.080000e+000
      vertex   -8.957419e-001 -4.794814e-001 5.080000e+000
    endloop
  endfacet
  facet normal 0.000000e+000 0.000000e+000 1.000000e+000
    outer loop
      vertex   -1.011047e+000 -1.001974e-001 5.080000e+000
      vertex   -2.111989e+000 8.748143e-001 5.080000e+000
      vertex   -8.957419e-001 -4.794814e-001 5.080000e+000
    endloop
  endfacet
  facet normal 0.000000e+000 0.000000e+000 1.000000e+000
    outer loop
      vertex   1.001974e-001 -1.011047e+000 5.080000e+000
      vertex   -2.943407e-001 -9.724298e-001 5.080000e+000
      vertex   0.000000e+000 -2.286000e+000 5.080000e+000
    endloop
  endfacet
  facet normal 0.000000e+000 0.000000e+000 1.000000e+000
    outer loop
      vertex   -9.724298e-001 2.943407e-001 5.080000e+000
      vertex   -2.111989e+000 8.748143e-001 5.080000e+000
      vertex   -1.011047e+000 -1.001974e-001 5.080000e+000
    endloop
  endfacet
  facet normal -0.000000e+000 0.000000e+000 1.000000e+000
    outer loop
      vertex   4.794814e-001 -8.957419e-001 5.080000e+000
      vertex   1.001974e-001 -1.011047e+000 5.080000e+000
      vertex   0.000000e+000 -2.286000e+000 5.080000e+000
    endloop
  endfacet
  facet normal 0.000000e+000 0.000000e+000 1.000000e+000
    outer loop
      vertex   -7.857686e-001 6.440681e-001 5.080000e+000
      vertex   -2.111989e+000 8.748143e-001 5.080000e+000
      vertex   -9.724298e-001 2.943407e-001 5.080000e+000
    endloop
  endfacet
  facet normal -0.000000e+000 0.000000e+000 1.000000e+000
    outer loop
      vertex   -1.616446e+000 1.616446e+000 5.080000e+000
      vertex   -2.111989e+000 8.748143e-001 5.080000e+000
      vertex   -7.857686e-001 6.440681e-001 5.080000e+000
    endloop
  endfacet
  facet normal -0.000000e+000 0.000000e+000 1.000000e+000
    outer loop
      vertex   7.857686e-001 -6.440681e-001 5.080000e+000
      vertex   4.794814e-001 -8.957419e-001 5.080000e+000
      vertex   0.000000e+000 -2.286000e+000 5.080000e+000
    endloop
  endfacet
  facet normal 0.000000e+000 0.000000e+000 1.000000e+000
    outer loop
      vertex   -4.794814e-001 8.957419e-001 5.080000e+000
      vertex   -1.616446e+000 1.616446e+000 5.080000e+000
      vertex   -7.857686e-001 6.440681e-001 5.080000e+000
    endloop
  endfacet
  facet normal -0.000000e+000 0.000000e+000 1.000000e+000
    outer loop
      vertex   9.724298e-001 -2.943407e-001 5.080000e+000
      vertex   7.857686e-001 -6.440681e-001 5.080000e+000
      vertex   0.000000e+000 -2.286000e+000 5.080000e+000
    endloop
  endfacet
  facet normal 0.000000e+000 0.000000e+000 1.000000e+000
    outer loop
      vertex   -1.001974e-001 1.011047e+000 5.080000e+000
      vertex   -1.616446e+000 1.616446e+000 5.080000e+000
      vertex   -4.794814e-001 8.957419e-001 5.080000e+000
    endloop
  endfacet
  facet normal -0.000000e+000 0.000000e+000 1.000000e+000
    outer loop
      vertex   -8.748143e-001 2.111989e+000 5.080000e+000
      vertex   -1.616446e+000 1.616446e+000 5.080000e+000
      vertex   -1.001974e-001 1.011047e+000 5.080000e+000
    endloop
  endfacet
  facet normal 0.000000e+000 0.000000e+000 1.000000e+000
    outer loop
      vertex   2.943407e-001 9.724298e-001 5.080000e+000
      vertex   -8.748143e-001 2.111989e+000 5.080000e+000
      vertex   -1.001974e-001 1.011047e+000 5.080000e+000
    endloop
  endfacet
  facet normal 0.000000e+000 0.000000e+000 1.000000e+000
    outer loop
      vertex   6.440681e-001 7.857686e-001 5.080000e+000
      vertex   -8.748143e-001 2.111989e+000 5.080000e+000
      vertex   2.943407e-001 9.724298e-001 5.080000e+000
    endloop
  endfacet
  facet normal -0.000000e+000 -0.000000e+000 1.000000e+000
    outer loop
      vertex   0.000000e+000 2.286000e+000 5.080000e+000
      vertex   6.440681e-001 7.857686e-001 5.080000e+000
      vertex   8.957419e-001 4.794814e-001 5.080000e+000
    endloop
  endfacet
  facet normal -0.000000e+000 0.000000e+000 1.000000e+000
    outer loop
      vertex   0.000000e+000 2.286000e+000 5.080000e+000
      vertex   -8.748143e-001 2.111989e+000 5.080000e+000
      vertex   6.440681e-001 7.857686e-001 5.080000e+000
    endloop
  endfacet
  facet normal 0.000000e+000 0.000000e+000 1.000000e+000
    outer loop
      vertex   1.338580e+001 -2.286000e+000 5.080000e+000
      vertex   0.000000e+000 2.286000e+000 5.080000e+000
      vertex   8.957419e-001 4.794814e-001 5.080000e+000
    endloop
  endfacet
  facet normal 0.000000e+000 0.000000e+000 1.000000e+000
    outer loop
      vertex   1.338580e+001 -2.286000e+000 5.080000e+000
      vertex   8.957419e-001 4.794814e-001 5.080000e+000
      vertex   1.011047e+000 1.001974e-001 5.080000e+000
    endloop
  endfacet
  facet normal 0.000000e+000 0.000000e+000 1.000000e+000
    outer loop
      vertex   1.338580e+001 -2.286000e+000 5.080000e+000
      vertex   1.011047e+000 1.001974e-001 5.080000e+000
      vertex   9.724298e-001 -2.943407e-001 5.080000e+000
    endloop
  endfacet
  facet normal 0.000000e+000 0.000000e+000 1.000000e+000
    outer loop
      vertex   1.338580e+001 -2.286000e+000 5.080000e+000
      vertex   9.724298e-001 -2.943407e-001 5.080000e+000
      vertex   0.000000e+000 -2.286000e+000 5.080000e+000
    endloop
  endfacet
  facet normal 0.000000e+000 -1.000000e+000 0.000000e+000
    outer loop
      vertex   1.338580e+001 -2.286000e+000 9.144000e+001
      vertex   1.338580e+001 -2.286000e+000 5.080000e+000
      vertex   1.795780e+001 -2.286000e+000 5.080000e+000
    endloop
  endfacet
  facet normal 0.000000e+000 0.000000e+000 1.000000e+000
    outer loop
      vertex   3.362960e+001 -1.399771e-016 5.080000e+000
      vertex   3.134360e+001 2.286000e+000 5.080000e+000
      vertex   3.345559e+001 -8.748143e-001 5.080000e+000
    endloop
  endfacet
  facet normal -0.000000e+000 0.000000e+000 1.000000e+000
    outer loop
      vertex   3.134360e+001 2.286000e+000 5.080000e+000
      vertex   1.795780e+001 2.286000e+000 5.080000e+000
      vertex   3.153010e+001 9.987355e-001 5.080000e+000
    endloop
  endfacet
  facet normal -0.000000e+000 -0.000000e+000 1.000000e+000
    outer loop
      vertex   3.134360e+001 2.286000e+000 5.080000e+000
      vertex   3.153010e+001 9.987355e-001 5.080000e+000
      vertex   3.189811e+001 8.513397e-001 5.080000e+000
    endloop
  endfacet
  facet normal -0.000000e+000 -0.000000e+000 1.000000e+000
    outer loop
      vertex   3.134360e+001 2.286000e+000 5.080000e+000
      vertex   3.189811e+001 8.513397e-001 5.080000e+000
      vertex   3.218169e+001 5.743352e-001 5.080000e+000
    endloop
  endfacet
  facet normal -0.000000e+000 -0.000000e+000 1.000000e+000
    outer loop
      vertex   3.134360e+001 2.286000e+000 5.080000e+000
      vertex   3.218169e+001 5.743352e-001 5.080000e+000
      vertex   3.345559e+001 -8.748143e-001 5.080000e+000
    endloop
  endfacet
  facet normal 0.000000e+000 1.000000e+000 0.000000e+000
    outer loop
      vertex   1.338580e+001 2.286000e+000 9.144000e+001
      vertex   1.795780e+001 2.286000e+000 5.080000e+000
      vertex   1.338580e+001 2.286000e+000 5.080000e+000
    endloop
  endfacet
  facet normal 0.000000e+000 0.000000e+000 1.000000e+000
    outer loop
      vertex   3.345559e+001 -8.748143e-001 5.080000e+000
      vertex   3.233768e+001 2.098933e-001 5.080000e+000
      vertex   3.296004e+001 -1.616446e+000 5.080000e+000
    endloop
  endfacet
  facet normal 0.000000e+000 1.000000e+000 -0.000000e+000
    outer loop
      vertex   1.795780e+001 2.286000e+000 9.144000e+001
      vertex   1.795780e+001 2.286000e+000 5.080000e+000
      vertex   1.338580e+001 2.286000e+000 9.144000e+001
    endloop
  endfacet
  facet normal 0.000000e+000 0.000000e+000 1.000000e+000
    outer loop
      vertex   3.345559e+001 -8.748143e-001 5.080000e+000
      vertex   3.218169e+001 5.743352e-001 5.080000e+000
      vertex   3.233768e+001 2.098933e-001 5.080000e+000
    endloop
  endfacet
  facet normal -0.000000e+000 -0.000000e+000 1.000000e+000
    outer loop
      vertex   3.233768e+001 2.098933e-001 5.080000e+000
      vertex   3.234233e+001 -1.865029e-001 5.080000e+000
      vertex   3.296004e+001 -1.616446e+000 5.080000e+000
    endloop
  endfacet
  facet normal 0.000000e+000 0.000000e+000 1.000000e+000
    outer loop
      vertex   3.153010e+001 9.987355e-001 5.080000e+000
      vertex   1.795780e+001 2.286000e+000 5.080000e+000
      vertex   3.113371e+001 9.940829e-001 5.080000e+000
    endloop
  endfacet
  facet normal -0.000000e+000 0.000000e+000 1.000000e+000
    outer loop
      vertex   3.234233e+001 -1.865029e-001 5.080000e+000
      vertex   3.219494e+001 -5.545058e-001 5.080000e+000
      vertex   3.296004e+001 -1.616446e+000 5.080000e+000
    endloop
  endfacet
  facet normal 0.000000e+000 0.000000e+000 1.000000e+000
    outer loop
      vertex   3.113371e+001 9.940829e-001 5.080000e+000
      vertex   1.795780e+001 2.286000e+000 5.080000e+000
      vertex   3.076926e+001 8.380902e-001 5.080000e+000
    endloop
  endfacet
  facet normal 0.000000e+000 0.000000e+000 1.000000e+000
    outer loop
      vertex   3.296004e+001 -1.616446e+000 5.080000e+000
      vertex   3.219494e+001 -5.545058e-001 5.080000e+000
      vertex   3.221841e+001 -2.111989e+000 5.080000e+000
    endloop
  endfacet
  facet normal -0.000000e+000 0.000000e+000 1.000000e+000
    outer loop
      vertex   3.219494e+001 -5.545058e-001 5.080000e+000
      vertex   3.191793e+001 -8.380902e-001 5.080000e+000
      vertex   3.221841e+001 -2.111989e+000 5.080000e+000
    endloop
  endfacet
  facet normal 0.000000e+000 0.000000e+000 1.000000e+000
    outer loop
      vertex   3.076926e+001 8.380902e-001 5.080000e+000
      vertex   1.795780e+001 2.286000e+000 5.080000e+000
      vertex   3.049226e+001 5.545058e-001 5.080000e+000
    endloop
  endfacet
  facet normal -0.000000e+000 0.000000e+000 1.000000e+000
    outer loop
      vertex   3.191793e+001 -8.380902e-001 5.080000e+000
      vertex   3.155349e+001 -9.940829e-001 5.080000e+000
      vertex   3.221841e+001 -2.111989e+000 5.080000e+000
    endloop
  endfacet
  facet normal 0.000000e+000 0.000000e+000 1.000000e+000
    outer loop
      vertex   3.049226e+001 5.545058e-001 5.080000e+000
      vertex   1.795780e+001 2.286000e+000 5.080000e+000
      vertex   3.034486e+001 1.865029e-001 5.080000e+000
    endloop
  endfacet
  facet normal -0.000000e+000 0.000000e+000 1.000000e+000
    outer loop
      vertex   3.155349e+001 -9.940829e-001 5.080000e+000
      vertex   3.115710e+001 -9.987355e-001 5.080000e+000
      vertex   3.221841e+001 -2.111989e+000 5.080000e+000
    endloop
  endfacet
  facet normal 0.000000e+000 0.000000e+000 1.000000e+000
    outer loop
      vertex   3.221841e+001 -2.111989e+000 5.080000e+000
      vertex   3.115710e+001 -9.987355e-001 5.080000e+000
      vertex   3.134360e+001 -2.286000e+000 5.080000e+000
    endloop
  endfacet
  facet normal 0.000000e+000 0.000000e+000 1.000000e+000
    outer loop
      vertex   3.034486e+001 1.865029e-001 5.080000e+000
      vertex   1.795780e+001 2.286000e+000 5.080000e+000
      vertex   3.034952e+001 -2.098933e-001 5.080000e+000
    endloop
  endfacet
  facet normal 0.000000e+000 0.000000e+000 1.000000e+000
    outer loop
      vertex   3.115710e+001 -9.987355e-001 5.080000e+000
      vertex   3.078909e+001 -8.513397e-001 5.080000e+000
      vertex   3.134360e+001 -2.286000e+000 5.080000e+000
    endloop
  endfacet
  facet normal 0.000000e+000 0.000000e+000 1.000000e+000
    outer loop
      vertex   3.034952e+001 -2.098933e-001 5.080000e+000
      vertex   1.795780e+001 2.286000e+000 5.080000e+000
      vertex   3.050551e+001 -5.743352e-001 5.080000e+000
    endloop
  endfacet
  facet normal 0.000000e+000 0.000000e+000 1.000000e+000
    outer loop
      vertex   3.078909e+001 -8.513397e-001 5.080000e+000
      vertex   3.050551e+001 -5.743352e-001 5.080000e+000
      vertex   3.134360e+001 -2.286000e+000 5.080000e+000
    endloop
  endfacet
  facet normal 0.000000e+000 0.000000e+000 1.000000e+000
    outer loop
      vertex   3.050551e+001 -5.743352e-001 5.080000e+000
      vertex   1.795780e+001 2.286000e+000 5.080000e+000
      vertex   3.134360e+001 -2.286000e+000 5.080000e+000
    endloop
  endfacet
  facet normal 0.000000e+000 0.000000e+000 1.000000e+000
    outer loop
      vertex   3.134360e+001 -2.286000e+000 5.080000e+000
      vertex   1.795780e+001 2.286000e+000 5.080000e+000
      vertex   1.795780e+001 -2.286000e+000 5.080000e+000
    endloop
  endfacet
  facet normal -1.000000e+000 0.000000e+000 0.000000e+000
    outer loop
      vertex   1.338580e+001 0.000000e+000 4.826000e+001
      vertex   1.338580e+001 -2.286000e+000 5.080000e+000
      vertex   1.338580e+001 -2.286000e+000 9.144000e+001
    endloop
  endfacet
  facet normal 1.000000e+000 0.000000e+000 0.000000e+000
    outer loop
      vertex   1.795780e+001 0.000000e+000 4.826000e+001
      vertex   1.795780e+001 -2.286000e+000 9.144000e+001
      vertex   1.795780e+001 -2.286000e+000 5.080000e+000
    endloop
  endfacet
  facet normal 1.000000e+000 0.000000e+000 -0.000000e+000
    outer loop
      vertex   1.795780e+001 0.000000e+000 4.826000e+001
      vertex   1.795780e+001 2.286000e+000 5.080000e+000
      vertex   1.795780e+001 2.286000e+000 9.144000e+001
    endloop
  endfacet
  facet normal 1.000000e+000 0.000000e+000 0.000000e+000
    outer loop
      vertex   1.795780e+001 0.000000e+000 4.826000e+001
      vertex   1.795780e+001 -2.286000e+000 5.080000e+000
      vertex   1.795780e+001 2.286000e+000 5.080000e+000
    endloop
  endfacet
  facet normal -1.000000e+000 0.000000e+000 -0.000000e+000
    outer loop
      vertex   1.338580e+001 0.000000e+000 4.826000e+001
      vertex   1.338580e+001 2.286000e+000 9.144000e+001
      vertex   1.338580e+001 2.286000e+000 5.080000e+000
    endloop
  endfacet
  facet normal -1.000000e+000 0.000000e+000 0.000000e+000
    outer loop
      vertex   1.338580e+001 0.000000e+000 4.826000e+001
      vertex   1.338580e+001 2.286000e+000 5.080000e+000
      vertex   1.338580e+001 -2.286000e+000 5.080000e+000
    endloop
  endfacet
  facet normal -1.000000e+000 0.000000e+000 0.000000e+000
    outer loop
      vertex   1.338580e+001 0.000000e+000 4.826000e+001
      vertex   1.338580e+001 -2.286000e+000 9.144000e+001
      vertex   1.338580e+001 2.286000e+000 9.144000e+001
    endloop
  endfacet
  facet normal 1.000000e+000 0.000000e+000 0.000000e+000
    outer loop
      vertex   1.795780e+001 0.000000e+000 4.826000e+001
      vertex   1.795780e+001 2.286000e+000 9.144000e+001
      vertex   1.795780e+001 -2.286000e+000 9.144000e+001
    endloop
  endfacet
  facet normal 0.000000e+000 1.000000e+000 0.000000e+000
    outer loop
      vertex   1.338580e+001 2.286000e+000 9.144000e+001
      vertex   6.692900e+000 2.286000e+000 9.144000e+001
      vertex   6.692900e+000 2.286000e+000 9.652000e+001
    endloop
  endfacet
  facet normal 0.000000e+000 -1.000000e+000 0.000000e+000
    outer loop
      vertex   2.465070e+001 -2.286000e+000 9.652000e+001
      vertex   6.692900e+000 -2.286000e+000 9.652000e+001
      vertex   2.465070e+001 -2.286000e+000 9.144000e+001
    endloop
  endfacet
  facet normal 0.000000e+000 -1.000000e+000 0.000000e+000
    outer loop
      vertex   2.465070e+001 -2.286000e+000 9.144000e+001
      vertex   6.692900e+000 -2.286000e+000 9.652000e+001
      vertex   1.795780e+001 -2.286000e+000 9.144000e+001
    endloop
  endfacet
  facet normal 0.000000e+000 1.000000e+000 -0.000000e+000
    outer loop
      vertex   1.795780e+001 2.286000e+000 9.144000e+001
      vertex   1.338580e+001 2.286000e+000 9.144000e+001
      vertex   6.692900e+000 2.286000e+000 9.652000e+001
    endloop
  endfacet
  facet normal 0.000000e+000 -1.000000e+000 0.000000e+000
    outer loop
      vertex   1.338580e+001 -2.286000e+000 9.144000e+001
      vertex   6.692900e+000 -2.286000e+000 9.652000e+001
      vertex   6.692900e+000 -2.286000e+000 9.144000e+001
    endloop
  endfacet
  facet normal 0.000000e+000 1.000000e+000 -0.000000e+000
    outer loop
      vertex   2.465070e+001 2.286000e+000 9.144000e+001
      vertex   1.795780e+001 2.286000e+000 9.144000e+001
      vertex   6.692900e+000 2.286000e+000 9.652000e+001
    endloop
  endfacet
  facet normal 0.000000e+000 -1.000000e+000 0.000000e+000
    outer loop
      vertex   1.795780e+001 -2.286000e+000 9.144000e+001
      vertex   6.692900e+000 -2.286000e+000 9.652000e+001
      vertex   1.338580e+001 -2.286000e+000 9.144000e+001
    endloop
  endfacet
  facet normal 0.000000e+000 0.000000e+000 -1.000000e+000
    outer loop
      vertex   1.003935e+001 0.000000e+000 9.144000e+001
      vertex   6.692900e+000 2.286000e+000 9.144000e+001
      vertex   1.338580e+001 2.286000e+000 9.144000e+001
    endloop
  endfacet
  facet normal 0.000000e+000 0.000000e+000 -1.000000e+000
    outer loop
      vertex   1.003935e+001 0.000000e+000 9.144000e+001
      vertex   6.692900e+000 -2.286000e+000 9.144000e+001
      vertex   6.692900e+000 2.286000e+000 9.144000e+001
    endloop
  endfacet
  facet normal 0.000000e+000 0.000000e+000 -1.000000e+000
    outer loop
      vertex   1.003935e+001 0.000000e+000 9.144000e+001
      vertex   1.338580e+001 -2.286000e+000 9.144000e+001
      vertex   6.692900e+000 -2.286000e+000 9.144000e+001
    endloop
  endfacet
  facet normal -1.000000e+000 0.000000e+000 -0.000000e+000
    outer loop
      vertex   6.692900e+000 0.000000e+000 9.398000e+001
      vertex   6.692900e+000 2.286000e+000 9.652000e+001
      vertex   6.692900e+000 2.286000e+000 9.144000e+001
    endloop
  endfacet
  facet normal 0.000000e+000 -0.000000e+000 -1.000000e+000
    outer loop
      vertex   1.003935e+001 0.000000e+000 9.144000e+001
      vertex   1.338580e+001 2.286000e+000 9.144000e+001
      vertex   1.338580e+001 -2.286000e+000 9.144000e+001
    endloop
  endfacet
  facet normal -1.000000e+000 0.000000e+000 0.000000e+000
    outer loop
      vertex   6.692900e+000 0.000000e+000 9.398000e+001
      vertex   6.692900e+000 -2.286000e+000 9.144000e+001
      vertex   6.692900e+000 -2.286000e+000 9.652000e+001
    endloop
  endfacet
  facet normal 0.000000e+000 1.000000e+000 -0.000000e+000
    outer loop
      vertex   2.465070e+001 2.286000e+000 9.652000e+001
      vertex   2.465070e+001 2.286000e+000 9.144000e+001
      vertex   6.692900e+000 2.286000e+000 9.652000e+001
    endloop
  endfacet
  facet normal -1.000000e+000 0.000000e+000 0.000000e+000
    outer loop
      vertex   6.692900e+000 0.000000e+000 9.398000e+001
      vertex   6.692900e+000 2.286000e+000 9.144000e+001
      vertex   6.692900e+000 -2.286000e+000 9.144000e+001
    endloop
  endfacet
  facet normal 0.000000e+000 0.000000e+000 -1.000000e+000
    outer loop
      vertex   2.130425e+001 0.000000e+000 9.144000e+001
      vertex   1.795780e+001 2.286000e+000 9.144000e+001
      vertex   2.465070e+001 2.286000e+000 9.144000e+001
    endloop
  endfacet
  facet normal 0.000000e+000 0.000000e+000 -1.000000e+000
    outer loop
      vertex   2.130425e+001 0.000000e+000 9.144000e+001
      vertex   1.795780e+001 -2.286000e+000 9.144000e+001
      vertex   1.795780e+001 2.286000e+000 9.144000e+001
    endloop
  endfacet
  facet normal 0.000000e+000 0.000000e+000 -1.000000e+000
    outer loop
      vertex   2.130425e+001 0.000000e+000 9.144000e+001
      vertex   2.465070e+001 -2.286000e+000 9.144000e+001
      vertex   1.795780e+001 -2.286000e+000 9.144000e+001
    endloop
  endfacet
  facet normal 0.000000e+000 -0.000000e+000 -1.000000e+000
    outer loop
      vertex   2.130425e+001 0.000000e+000 9.144000e+001
      vertex   2.465070e+001 2.286000e+000 9.144000e+001
      vertex   2.465070e+001 -2.286000e+000 9.144000e+001
    endloop
  endfacet
  facet normal 1.000000e+000 0.000000e+000 0.000000e+000
    outer loop
      vertex   2.465070e+001 0.000000e+000 9.398000e+001
      vertex   2.465070e+001 -2.286000e+000 9.652000e+001
      vertex   2.465070e+001 -2.286000e+000 9.144000e+001
    endloop
  endfacet
  facet normal 1.000000e+000 0.000000e+000 -0.000000e+000
    outer loop
      vertex   2.465070e+001 0.000000e+000 9.398000e+001
      vertex   2.465070e+001 2.286000e+000 9.144000e+001
      vertex   2.465070e+001 2.286000e+000 9.652000e+001
    endloop
  endfacet
  facet normal 1.000000e+000 0.000000e+000 0.000000e+000
    outer loop
      vertex   2.465070e+001 0.000000e+000 9.398000e+001
      vertex   2.465070e+001 -2.286000e+000 9.144000e+001
      vertex   2.465070e+001 2.286000e+000 9.144000e+001
    endloop
  endfacet
  facet normal -1.000000e+000 0.000000e+000 0.000000e+000
    outer loop
      vertex   6.692900e+000 0.000000e+000 9.398000e+001
      vertex   6.692900e+000 -2.286000e+000 9.652000e+001
      vertex   6.692900e+000 2.286000e+000 9.652000e+001
    endloop
  endfacet
  facet normal 1.000000e+000 0.000000e+000 0.000000e+000
    outer loop
      vertex   2.465070e+001 0.000000e+000 9.398000e+001
      vertex   2.465070e+001 2.286000e+000 9.652000e+001
      vertex   2.465070e+001 -2.286000e+000 9.652000e+001
    endloop
  endfacet
  facet normal 0.000000e+000 0.000000e+000 1.000000e+000
    outer loop
      vertex   1.567180e+001 0.000000e+000 9.652000e+001
      vertex   6.692900e+000 -2.286000e+000 9.652000e+001
      vertex   2.465070e+001 -2.286000e+000 9.652000e+001
    endloop
  endfacet
  facet normal 0.000000e+000 0.000000e+000 1.000000e+000
    outer loop
      vertex   1.567180e+001 0.000000e+000 9.652000e+001
      vertex   6.692900e+000 2.286000e+000 9.652000e+001
      vertex   6.692900e+000 -2.286000e+000 9.652000e+001
    endloop
  endfacet
  facet normal 0.000000e+000 -0.000000e+000 1.000000e+000
    outer loop
      vertex   1.567180e+001 0.000000e+000 9.652000e+001
      vertex   2.465070e+001 -2.286000e+000 9.652000e+001
      vertex   2.465070e+001 2.286000e+000 9.652000e+001
    endloop
  endfacet
  facet normal 0.000000e+000 0.000000e+000 1.000000e+000
    outer loop
      vertex   1.567180e+001 0.000000e+000 9.652000e+001
      vertex   2.465070e+001 2.286000e+000 9.652000e+001
      vertex   6.692900e+000 2.286000e+000 9.652000e+001
    endloop
  endfacet
endsolid
